{"glyphs":{"0":{"ha":553,"x_min":-28,"x_max":581,"o":"m 581 628 l 460 628 l 460 343 q 394 206 460 251 q 242 164 338 164 q 99 225 158 164 q 40 369 40 286 l 40 628 l -28 628 l -28 729 l 581 729 l 581 628 m 167 628 l 167 411 q 185 325 167 363 q 249 278 207 278 q 333 394 333 278 l 333 628 l 167 628 z "},"1":{"ha":836,"x_min":0,"x_max":867,"o":"m 867 628 l 736 628 l 736 75 l 610 75 l 610 433 l 453 433 q 532 281 532 353 q 435 114 532 176 q 489 8 469 38 q 556 -61 517 -37 l 458 -118 q 325 72 403 -93 q 239 64 281 64 q 100 97 154 64 q 38 219 38 139 q 192 343 38 343 q 379 221 300 343 q 403 282 403 253 q 308 400 403 361 q 139 429 236 431 l 139 536 l 610 536 l 610 628 l 0 628 l 0 729 l 867 729 l 867 628 m 199 247 q 168 233 183 247 q 161 210 161 221 q 239 167 161 167 q 278 171 253 167 q 199 247 233 247 z "},"2":{"ha":675,"x_min":0,"x_max":710,"o":"m 710 628 l 471 628 l 471 482 l 260 482 q 174 442 174 482 q 199 401 174 422 q 358 425 272 425 q 426 422 389 425 l 426 319 q 361 325 396 325 q 169 190 169 325 q 258 88 169 113 q 256 121 256 110 q 306 241 256 196 q 432 286 357 286 q 545 247 496 286 q 594 144 594 207 q 438 -6 594 40 q 550 -50 496 -50 q 571 -49 560 -50 l 528 -137 q 311 -22 389 -108 q 42 214 42 -25 q 108 356 42 297 q 42 461 42 397 q 239 576 42 578 q 331 572 243 576 l 331 628 l 0 628 l 0 729 l 710 729 l 710 628 m 442 203 q 365 131 365 194 q 372 88 365 113 q 469 161 469 110 q 442 203 469 183 z "},"3":{"ha":660,"x_min":0,"x_max":689,"o":"m 689 628 l 576 628 l 576 75 l 444 75 l 444 160 q 247 110 347 110 q 96 161 151 110 q 40 308 40 213 q 107 454 40 394 q 60 563 60 508 q 79 628 60 585 l 0 628 l 0 729 l 689 729 l 689 628 m 228 628 q 192 569 192 610 q 215 503 192 538 q 250 506 235 506 q 329 493 288 506 l 328 390 q 267 400 292 400 q 171 318 171 400 q 269 218 171 218 q 365 239 313 218 q 444 293 417 260 l 444 628 l 228 628 z "},"4":{"ha":692,"x_min":0,"x_max":724,"o":"m 724 628 l 546 628 l 546 457 l 307 456 q 171 346 171 454 q 267 204 171 244 q 264 244 264 231 q 316 363 264 317 q 442 408 368 408 q 556 368 510 408 q 603 260 603 328 q 447 94 603 146 q 590 -37 501 17 l 494 -112 l 471 -90 q 325 -229 429 -229 q 233 -199 274 -229 q 189 -115 193 -168 q 92 -53 119 -114 l 58 -90 l 18 -53 l 63 -4 l 88 -28 q 144 85 90 47 l 193 40 q 160 -17 160 8 q 208 -51 160 -50 q 268 10 231 -15 l 314 -36 q 269 -99 269 -65 q 285 -136 269 -119 q 321 -153 300 -153 q 382 -115 354 -153 q 415 -39 410 -78 q 315 78 349 25 q 119 146 193 82 q 39 333 39 215 q 99 497 39 438 q 264 557 160 557 l 417 557 l 417 628 l 0 628 l 0 729 l 724 729 l 724 628 m 440 314 q 410 297 422 314 q 397 260 397 279 q 403 204 397 236 q 471 263 471 226 q 440 314 471 314 z "},"5":{"ha":832,"x_min":0,"x_max":863,"o":"m 863 626 l 649 626 l 649 567 q 732 396 732 522 q 592 156 732 244 q 725 54 646 54 q 769 61 740 54 l 721 -53 q 701 -53 710 -53 q 479 107 571 -53 q 315 83 397 83 q 129 133 203 83 q 44 299 44 192 q 119 432 44 376 q 65 533 65 476 q 101 628 65 575 l 0 628 l 0 729 l 863 729 l 863 626 m 569 472 q 540 429 546 472 q 539 378 539 414 q 550 275 539 338 q 603 408 603 335 q 569 472 603 472 m 543 626 l 239 628 q 194 557 194 594 q 268 483 194 503 q 328 488 300 488 q 379 486 351 488 l 379 381 q 329 385 350 385 q 231 365 272 385 q 175 292 175 340 q 332 203 175 203 q 435 215 382 203 q 411 358 411 294 q 543 574 411 536 l 543 626 z "},"6":{"ha":654,"x_min":0,"x_max":686,"o":"m 686 628 l 500 628 l 500 433 l 331 432 q 219 408 265 432 q 163 319 163 379 q 217 225 163 261 q 325 193 263 193 q 521 288 461 193 l 568 169 q 464 99 533 124 q 340 76 403 76 q 233 83 269 76 q 136 126 182 93 q 32 335 32 200 q 124 508 32 451 q 236 539 164 533 q 365 540 263 542 l 365 628 l 0 628 l 0 729 l 686 729 l 686 628 z "},"7":{"ha":718,"x_min":0,"x_max":749,"o":"m 749 628 l 535 628 l 535 458 q 401 458 542 458 q 250 442 296 458 q 175 322 175 411 q 217 223 175 260 q 322 186 260 186 q 500 292 500 186 q 389 368 500 368 l 450 454 q 576 410 525 453 q 628 296 628 367 q 526 115 628 165 q 310 79 454 79 q 119 150 197 79 q 40 332 40 221 q 161 519 40 468 q 404 553 244 556 l 404 628 l 0 628 l 0 729 l 749 729 l 749 628 z "},"8":{"ha":678,"x_min":0,"x_max":708,"o":"m 708 628 l 503 628 l 503 467 l 240 467 q 194 435 194 467 q 250 397 194 397 l 413 397 q 535 353 482 397 q 588 239 588 308 q 485 97 588 144 q 300 61 407 61 q 32 160 140 61 l 67 271 q 290 175 160 175 q 388 189 343 175 q 451 246 451 208 q 369 294 451 294 l 215 294 q 110 332 153 294 q 63 432 63 371 q 275 567 63 567 q 326 565 296 567 q 376 564 363 564 l 376 628 l 0 628 l 0 729 l 708 729 l 708 628 z "},"9":{"ha":713,"x_min":0,"x_max":742,"o":"m 742 628 l 551 628 l 551 465 l 313 465 q 171 321 171 465 q 299 190 171 225 q 286 253 286 231 q 344 371 286 325 q 471 413 397 413 q 579 376 536 413 q 622 275 622 340 q 533 119 622 175 q 353 71 458 71 q 139 135 226 71 q 40 328 40 207 q 101 497 40 435 q 269 558 163 560 l 415 558 l 415 628 l 0 628 l 0 729 l 742 729 l 742 628 m 463 311 q 426 294 440 311 q 411 257 411 278 q 424 196 411 235 q 492 281 492 222 q 463 311 492 311 z "}," ":{"ha":350,"x_min":0,"x_max":0,"o":""},"!":{"ha":568,"x_min":36,"x_max":476,"o":"m 476 75 l 346 75 l 347 339 q 229 313 281 313 q 90 374 143 313 q 36 524 36 436 q 92 674 36 615 q 240 732 149 732 q 411 679 350 732 q 476 514 476 622 l 476 75 m 261 624 q 191 597 218 624 q 164 526 164 569 q 191 451 164 482 q 261 421 218 421 q 350 450 300 421 q 350 480 350 460 q 350 510 350 500 q 261 624 350 624 z "},"\"":{"ha":0,"x_min":-367,"x_max":147,"o":"m 85 -218 q -164 -62 -17 -62 q -249 -112 -249 -62 q -175 -158 -249 -158 q -54 -136 -118 -158 l -72 -231 q -161 -249 -108 -249 q -297 -217 -242 -249 q -367 -104 -367 -178 q -301 6 -367 -32 q -169 36 -249 36 q 11 -6 -74 36 q 147 -135 104 -53 l 85 -218 z "},"#":{"ha":635,"x_min":40,"x_max":546,"o":"m 408 86 q 526 -57 442 -26 l 450 -118 q 303 60 368 -103 q 253 57 275 57 q 108 89 163 57 q 40 214 40 131 q 79 303 40 271 q 175 331 115 331 q 372 200 308 331 q 414 276 414 236 q 279 401 414 401 q 175 379 228 401 l 165 489 q 289 508 229 508 q 364 501 325 508 q 376 547 376 529 q 261 613 376 613 q 93 564 163 613 l 63 674 q 163 715 81 700 q 271 728 225 728 q 499 556 499 728 q 471 449 499 507 q 546 275 546 382 q 408 86 546 146 m 186 226 q 144 199 144 226 q 236 154 144 154 q 272 157 249 154 q 186 226 242 226 z "},"$":{"ha":628,"x_min":39,"x_max":539,"o":"m 290 74 q 125 119 196 74 q 42 261 42 172 q 131 408 42 349 q 39 578 39 471 q 157 729 39 674 l 219 639 q 172 560 172 611 q 285 478 172 478 q 406 560 406 478 q 358 639 406 606 l 435 731 q 536 565 536 685 q 444 411 536 472 q 539 261 539 351 q 456 119 539 172 q 290 74 385 74 m 288 361 q 207 336 239 361 q 175 264 175 311 q 288 183 175 183 q 408 264 408 183 q 369 338 408 311 q 288 361 336 361 z "},"%":{"ha":643,"x_min":38,"x_max":556,"o":"m 556 443 q 529 233 556 311 q 422 100 499 143 q 464 -4 436 61 q 517 -57 485 -44 l 429 -117 q 315 67 368 -92 q 240 63 276 63 q 38 221 38 63 q 188 349 38 349 q 376 210 303 349 q 415 417 415 271 q 283 388 350 388 q 117 436 185 388 q 40 585 40 490 l 40 729 l 167 729 l 167 593 q 274 503 167 503 q 417 543 358 503 l 417 728 l 556 729 l 556 443 m 181 253 q 144 215 144 253 q 244 160 144 160 q 281 161 258 160 q 181 253 238 253 z "},"&":{"ha":654,"x_min":32,"x_max":576,"o":"m 286 79 q 32 413 32 79 q 76 731 32 551 l 200 729 q 151 418 151 547 q 296 196 151 196 q 414 282 371 196 q 447 433 447 350 q 376 569 447 569 q 317 483 317 569 q 335 406 317 443 q 394 351 357 357 l 336 251 q 232 329 269 260 q 201 458 201 386 q 255 619 201 551 q 400 686 308 686 q 538 594 489 686 q 576 424 576 521 q 503 186 576 283 q 286 79 422 79 z "},"'":{"ha":0,"x_min":-504,"x_max":14,"o":"m -207 -258 q -379 -218 -300 -258 q -504 -93 -468 -172 l -447 10 q -210 -156 -360 -156 q -147 -143 -175 -156 q -110 -97 -110 -128 q -171 -50 -110 -50 q -281 -79 -215 -50 l -290 19 q -178 51 -244 51 q -46 14 -99 51 q 14 -103 14 -28 q -62 -222 14 -179 q -207 -258 -125 -258 z "},"(":{"ha":619,"x_min":39,"x_max":531,"o":"m 525 -17 l 389 -58 q 399 21 399 -12 q 306 206 399 125 q 132 335 219 271 q 39 526 39 417 q 107 678 39 621 q 267 733 171 733 q 422 676 358 733 q 485 528 485 618 q 446 409 485 465 q 342 326 407 353 q 531 35 531 176 q 525 -17 531 11 m 263 624 q 195 594 219 624 q 171 521 171 564 q 200 438 171 468 q 244 399 215 421 q 324 439 290 404 q 358 517 358 474 q 330 590 358 556 q 263 624 301 624 z "},")":{"ha":626,"x_min":40,"x_max":542,"o":"m 294 75 q 101 181 171 75 q 40 401 40 272 q 100 625 40 532 q 293 735 171 735 q 483 626 415 735 q 542 407 542 535 q 483 185 542 279 q 294 75 415 75 m 296 622 q 196 549 229 622 q 172 418 172 493 q 197 278 172 343 q 294 192 231 192 q 389 279 356 192 q 414 419 414 344 q 390 547 414 493 q 296 622 358 622 z "},"*":{"ha":621,"x_min":28,"x_max":529,"o":"m 315 76 q 156 146 210 76 q 104 318 104 210 q 161 542 104 424 q 92 529 118 529 q 42 538 68 529 l 28 657 q 57 657 44 657 q 232 697 118 657 q 407 738 346 738 q 453 736 426 738 l 465 614 q 419 617 439 617 q 358 611 390 617 q 265 483 300 569 q 235 329 235 406 q 328 185 235 185 q 407 286 394 185 l 529 221 q 445 115 506 154 q 315 76 385 76 z "},"+":{"ha":0,"x_min":-179,"x_max":-18,"o":"m -99 797 q -156 821 -132 797 q -179 878 -179 844 q -156 935 -179 911 q -99 958 -132 958 q -42 935 -65 958 q -18 878 -18 911 q -42 821 -18 844 q -99 797 -65 797 z "},",":{"ha":288,"x_min":28,"x_max":203,"o":"m 61 -46 l 28 1 q 74 34 43 11 q 118 88 104 57 q 39 168 39 99 q 63 224 39 200 q 119 247 86 247 q 174 223 150 247 q 199 168 199 199 q 61 -46 203 21 z "},"-":{"ha":333,"x_min":40,"x_max":249,"o":"m 182 -54 q 40 396 40 93 q 163 821 40 674 l 236 779 q 138 421 138 636 q 249 -12 138 176 l 182 -54 z "},"‐":{"ha":333,"x_min":40,"x_max":249,"o":"m 182 -54 q 40 396 40 93 q 163 821 40 674 l 236 779 q 138 421 138 636 q 249 -12 138 176 l 182 -54 z "},".":{"ha":250,"x_min":40,"x_max":160,"o":"m 40 0 l 40 753 l 160 753 l 160 0 l 40 0 z "},"/":{"ha":588,"x_min":-1,"x_max":608,"o":"m 415 628 q 460 504 460 568 q 400 347 460 417 q 243 269 336 275 q 404 190 313 190 q 493 206 443 190 l 489 76 q 381 56 433 56 q 143 176 244 56 q 40 433 49 290 l 172 490 q 188 385 175 435 q 284 422 244 388 q 324 510 324 457 q 244 619 324 586 q 224 628 226 628 q -1 628 219 628 l -1 729 l 608 729 l 608 628 l 415 628 z "},":":{"ha":581,"x_min":-1,"x_max":626,"o":"m 508 321 q 425 343 461 321 l 426 381 q 243 269 350 276 q 404 190 313 190 q 493 206 443 190 l 489 76 q 381 56 432 56 q 143 176 244 56 q 40 433 49 290 l 172 490 q 188 385 175 435 q 284 422 244 388 q 324 510 324 457 q 244 619 324 586 q 224 628 226 628 q -1 628 219 628 l -1 729 l 608 729 l 608 628 l 415 628 q 460 504 460 568 q 446 426 460 469 q 507 418 482 418 q 625 450 550 418 l 626 347 q 508 321 563 321 z "},";":{"ha":807,"x_min":-1,"x_max":840,"o":"m 719 628 l 718 75 l 586 75 l 586 333 q 508 321 542 321 q 425 343 461 321 l 426 381 q 243 269 350 276 q 404 190 313 190 q 493 206 443 190 l 489 76 q 381 56 432 56 q 143 176 244 56 q 40 433 49 290 l 172 490 q 188 385 175 435 q 284 422 244 388 q 324 510 324 457 q 244 619 324 586 q 224 628 226 628 q -1 628 219 628 l -1 729 l 840 729 l 840 628 l 719 628 m 415 628 q 460 504 460 568 q 446 426 460 469 q 506 418 482 418 q 586 435 540 418 l 586 628 l 415 628 z "},"<":{"ha":503,"x_min":42,"x_max":415,"o":"m 272 331 q 246 229 246 293 l 246 75 l 124 75 l 124 236 q 214 436 122 367 q 278 488 238 451 q 306 571 306 521 q 242 629 306 629 q 163 539 164 629 q 164 490 163 550 l 42 490 l 42 568 q 100 688 42 643 q 229 728 153 728 q 360 686 307 728 q 415 565 415 640 q 392 446 415 488 q 334 390 376 421 q 272 331 292 360 m 188 -146 q 131 -122 154 -146 q 107 -65 107 -99 q 131 -8 107 -32 q 188 15 154 15 q 244 -8 221 15 q 268 -65 268 -32 q 244 -122 268 -99 q 188 -146 221 -146 z "},"=":{"ha":290,"x_min":38,"x_max":199,"o":"m 118 78 q 61 101 85 78 q 38 158 38 125 q 61 215 38 192 q 118 239 85 239 q 175 215 151 239 q 199 158 199 192 q 175 101 199 125 q 118 78 151 78 z "},">":{"ha":763,"x_min":0,"x_max":804,"o":"m 804 628 l 683 628 l 683 75 l 556 75 l 557 200 q 88 19 328 19 l 46 139 q 106 135 81 135 q 497 292 269 135 q 361 307 421 294 q 139 226 256 226 q 40 243 90 226 l 40 367 q 140 346 92 346 q 217 358 171 346 q 88 551 88 436 q 143 678 88 629 q 278 728 199 728 q 422 667 368 728 q 476 517 476 606 q 436 389 476 456 q 557 374 497 378 l 557 628 l 457 628 l 465 621 l 465 729 l 804 729 l 804 628 m 92 628 l 0 628 l 0 729 l 92 729 l 92 628 m 279 619 q 215 536 215 619 q 313 425 215 471 q 349 536 349 476 q 330 594 349 569 q 279 619 311 619 z "},"?":{"ha":826,"x_min":-1,"x_max":858,"o":"m 415 628 q 460 517 453 578 q 565 554 510 554 q 706 492 654 554 q 751 343 751 433 q 717 194 751 260 l 618 250 q 643 346 643 290 q 572 450 643 450 q 529 411 529 450 q 592 371 529 379 l 551 282 q 422 376 460 286 q 243 269 353 276 q 404 190 313 190 q 493 206 443 190 l 489 76 q 381 56 432 56 q 143 176 244 56 q 40 433 49 290 l 172 490 q 188 385 175 435 q 284 422 244 388 q 324 510 324 457 q 244 619 324 586 q 224 628 226 628 q -1 628 219 628 l -1 729 l 858 729 l 858 628 l 415 628 z "},"@":{"ha":597,"x_min":32,"x_max":551,"o":"m 399 119 q 538 -54 440 14 l 440 -117 q 290 78 360 -114 q 225 72 256 72 q 96 128 149 72 q 43 261 43 185 q 80 358 43 322 q 178 394 117 394 q 296 358 253 394 q 360 257 333 326 q 418 443 418 347 q 388 565 418 515 q 286 625 351 625 q 198 593 236 625 q 161 511 160 561 l 161 503 l 35 519 l 35 529 q 117 682 32 625 q 289 729 189 729 q 483 636 413 729 q 547 417 551 549 q 399 119 542 214 m 189 292 q 153 260 153 292 q 177 207 153 229 q 232 185 201 185 q 261 188 243 185 q 189 292 233 292 z "},"A":{"ha":372,"x_min":0,"x_max":408,"o":"m 406 628 l 0 628 l 0 729 l 406 729 l 406 628 m 407 161 q 278 136 342 136 q 114 189 179 136 q 43 342 43 244 q 117 496 43 439 q 283 547 183 547 q 408 524 347 547 l 406 410 q 288 438 339 438 q 261 436 281 438 l 396 271 q 408 276 403 274 l 407 161 m 204 407 q 185 346 185 378 q 297 249 185 249 q 338 251 311 249 l 204 407 z "},"B":{"ha":646,"x_min":0,"x_max":689,"o":"m 689 628 l 576 628 l 576 75 l 444 75 l 444 143 q 235 92 346 92 q 42 251 42 92 q 90 365 42 313 q 42 468 42 406 q 251 583 42 586 l 251 628 l 0 628 l 0 729 l 689 729 l 689 628 m 364 628 l 364 501 l 222 501 q 161 458 161 501 q 244 415 161 415 q 321 425 283 415 l 307 333 q 235 328 267 328 q 208 329 222 328 q 164 263 164 307 q 254 194 164 194 q 354 215 301 194 q 444 274 414 238 l 444 628 l 364 628 z "},"C":{"ha":1107,"x_min":0,"x_max":1138,"o":"m 1138 628 l 996 628 l 996 276 q 900 267 964 275 q 838 213 838 253 q 899 169 838 169 q 1028 208 968 169 q 1053 104 1036 174 q 908 71 989 71 q 786 101 833 71 q 731 211 731 139 q 767 305 731 268 q 863 346 803 342 l 863 407 l 683 407 l 682 75 l 550 75 l 550 215 q 350 65 421 103 q 118 8 246 8 q 43 13 83 8 l 43 128 q 115 117 81 117 q 481 303 288 117 q 293 404 406 404 q 124 294 181 404 l 36 406 q 274 526 114 526 q 550 401 440 526 l 551 628 l 0 628 l 0 729 l 1138 729 l 1138 628 m 683 628 l 683 482 l 865 482 l 865 628 l 683 628 z "},"D":{"ha":529,"x_min":-3,"x_max":581,"o":"m 581 393 l 411 393 l 411 288 q 359 164 411 211 q 229 117 307 117 q 94 169 146 117 q 42 306 42 222 q 85 442 42 388 q 211 501 132 501 l 278 501 l 278 628 l -3 628 l -3 729 l 575 729 l 575 628 l 410 628 l 411 501 l 581 501 l 581 393 m 278 394 l 231 394 q 185 363 201 394 q 171 303 171 336 q 185 250 171 274 q 228 222 200 222 q 278 294 278 222 l 278 394 z "},"E":{"ha":546,"x_min":0,"x_max":603,"o":"m 603 628 l 513 628 l 513 729 l 603 729 l 603 628 m 594 393 l 411 393 l 411 288 q 358 164 411 211 q 229 117 306 117 q 94 169 146 117 q 42 306 42 222 q 85 442 42 388 q 211 501 132 501 l 278 501 l 278 628 l 0 628 l 0 729 l 278 729 l 278 729 q 373 690 336 724 q 410 603 410 657 l 410 501 l 594 501 l 594 393 m 278 394 l 231 394 q 171 303 171 394 q 185 250 171 274 q 228 222 200 222 q 278 294 278 222 l 278 394 z "},"F":{"ha":0,"x_min":-314,"x_max":99,"o":"m -90 888 q -135 906 -117 888 q -153 951 -153 925 q -135 995 -153 976 q -90 1014 -117 1014 q -46 995 -64 1014 q -28 951 -28 976 q -46 906 -28 925 q -90 888 -64 888 m -96 744 q -228 781 -169 744 q -314 889 -292 821 l -243 971 q -178 882 -226 915 q -81 853 -135 853 q 79 944 13 853 l 99 847 q -96 744 35 744 z "},"G":{"ha":547,"x_min":0,"x_max":592,"o":"m 592 628 l 0 628 l 0 729 l 592 729 l 592 628 m 390 404 q 424 279 424 336 q 374 134 424 193 q 239 75 324 75 q 97 138 151 75 q 46 285 46 196 q 275 515 46 515 l 582 515 l 583 406 l 390 404 m 257 403 q 174 294 174 390 q 231 182 174 182 q 278 219 258 182 q 294 281 294 251 q 257 403 294 365 z "},"H":{"ha":619,"x_min":0,"x_max":672,"o":"m 663 628 l 0 628 l 0 729 l 663 729 l 663 628 m 453 429 q 513 290 513 361 q 442 138 513 197 q 278 78 372 78 q 101 144 163 78 q 38 329 40 211 l 165 390 q 163 368 163 378 q 188 257 163 308 q 272 194 219 194 q 349 226 319 194 q 378 306 378 258 q 342 396 378 361 q 247 429 306 431 l 247 532 l 671 532 l 672 429 l 453 429 z "},"I":{"ha":674,"x_min":0,"x_max":713,"o":"m 713 628 l 535 628 l 535 729 l 713 729 l 713 628 m 111 628 l 0 628 l 0 729 l 111 729 l 111 628 m 346 394 q 224 331 303 376 q 169 236 169 290 q 272 132 169 158 q 249 207 249 178 q 297 299 249 267 q 401 325 339 325 q 515 294 469 325 q 568 194 568 260 q 468 64 568 114 q 550 -57 540 -11 l 467 -114 q 354 35 443 -60 q 311 32 329 32 q 132 78 206 32 q 43 231 43 132 q 194 453 43 364 q 113 578 113 508 q 185 696 113 654 q 326 731 243 731 q 463 694 408 731 q 524 574 524 651 q 464 460 524 513 q 704 433 596 436 l 704 354 q 346 394 504 354 m 332 622 q 275 613 303 622 q 238 575 238 600 q 306 504 238 536 q 369 535 328 514 q 399 572 399 553 q 332 622 399 622 m 406 236 q 377 226 390 236 q 364 200 364 215 q 393 143 364 179 q 443 190 443 161 q 406 236 443 236 z "},"J":{"ha":372,"x_min":0,"x_max":408,"o":"m 406 628 l 0 628 l 0 729 l 406 729 l 406 628 m 407 161 q 278 136 342 136 q 114 189 179 136 q 43 342 43 244 q 117 496 43 439 q 283 547 183 547 q 408 524 347 547 l 406 410 q 288 438 339 438 q 185 346 185 438 q 297 249 185 249 q 408 276 349 249 l 407 161 z "},"K":{"ha":410,"x_min":-28,"x_max":472,"o":"m 472 197 q 377 160 439 176 q 275 144 315 144 q 107 203 171 144 q 43 365 43 263 l 43 628 l -28 628 l -28 729 l 456 729 l 456 628 l 182 628 l 182 381 q 213 309 182 338 q 288 281 244 281 q 472 340 419 281 l 472 197 z "},"L":{"ha":264,"x_min":-337,"x_max":294,"o":"m 294 628 l 175 628 l 174 75 l 42 75 l 42 628 l 1 628 l 1 729 l 42 729 q -75 878 31 878 q -179 824 -140 878 q -217 704 -215 775 l -337 704 q -265 907 -336 825 q -78 994 -192 994 q 103 919 35 994 q 174 729 167 847 l 294 729 l 294 628 z "},"M":{"ha":258,"x_min":56,"x_max":207,"o":"m 135 457 q 81 478 104 457 q 58 532 58 500 q 81 580 58 560 q 131 600 103 600 q 183 579 160 600 q 207 528 207 558 q 185 478 207 500 q 135 457 163 457 m 133 89 q 78 110 101 89 q 56 164 56 132 q 78 212 56 192 q 128 232 100 232 q 181 210 158 232 q 204 158 204 189 q 183 110 204 131 q 133 89 161 89 z "},"N":{"ha":590,"x_min":0,"x_max":651,"o":"m 651 628 l 0 628 l 0 729 l 651 729 l 651 628 m 635 386 q 569 407 597 407 q 489 353 515 407 q 471 244 465 306 l 340 272 q 338 314 338 294 q 353 399 338 354 q 278 417 313 417 q 178 301 178 417 q 318 133 178 133 q 393 144 350 133 l 394 40 q 297 28 342 28 q 112 101 181 28 q 43 293 43 175 q 102 471 43 403 q 268 539 161 539 q 418 489 361 539 q 525 525 468 525 q 635 497 576 525 l 635 386 z "},"O":{"ha":672,"x_min":0,"x_max":700,"o":"m 700 628 l 508 628 l 508 478 l 268 478 q 203 442 203 478 q 269 404 203 404 l 418 404 q 532 361 486 404 q 578 249 578 318 q 479 85 578 147 q 563 -61 511 35 l 465 -112 q 381 47 440 -39 q 279 35 329 35 q 132 60 194 35 q 43 165 43 93 q 85 244 43 213 q 172 272 122 272 q 413 168 308 272 q 442 235 442 199 q 418 290 442 269 q 361 311 394 311 l 221 311 q 117 344 160 311 q 68 442 68 382 q 282 569 68 569 q 332 568 301 569 q 382 567 368 567 l 382 628 l 0 628 l 0 729 l 700 729 l 700 628 m 213 186 q 175 160 175 186 q 242 122 175 125 q 264 122 250 122 q 317 126 282 122 q 213 186 254 186 z "},"P":{"ha":589,"x_min":-28,"x_max":617,"o":"m 617 628 l 486 628 l 488 458 q 433 324 488 379 q 300 269 379 269 q 217 293 256 269 l 218 388 q 263 379 243 379 q 328 404 303 379 q 353 469 353 429 l 354 628 l 171 628 l 171 369 q 204 231 171 285 q 325 167 246 167 q 490 257 418 167 q 493 217 493 228 q 490 99 492 197 q 301 49 386 49 q 101 160 171 49 q 42 392 42 253 l 40 628 l -28 628 l -28 729 l 617 729 l 617 628 z "},"Q":{"ha":742,"x_min":0,"x_max":763,"o":"m 763 628 l 642 628 l 640 75 l 508 75 l 508 400 q 399 400 475 400 q 293 400 328 400 q 210 369 246 400 q 175 292 175 339 q 349 131 175 140 q 286 19 321 82 q 103 107 171 26 q 36 299 36 183 q 74 428 36 367 l 13 428 l 13 529 l 510 529 l 510 628 l 0 628 l 0 729 l 763 729 l 763 628 z "},"R":{"ha":493,"x_min":0,"x_max":529,"o":"m 525 628 l 0 628 l 0 729 l 525 729 l 525 628 m 350 465 q 258 413 296 464 q 225 314 225 367 q 319 218 225 218 q 431 249 372 218 q 529 332 490 281 l 528 189 q 299 113 428 113 q 146 158 206 113 q 81 300 81 208 q 131 429 81 363 q 40 447 78 431 l 40 554 q 110 544 76 544 q 214 559 144 544 q 319 574 283 574 q 399 554 361 574 l 400 460 l 375 460 l 381 458 q 351 468 363 463 l 350 465 z "},"S":{"ha":658,"x_min":0,"x_max":710,"o":"m 694 401 q 603 438 657 438 q 519 418 567 438 l 519 75 l 388 75 l 388 154 q 278 136 329 136 q 114 189 179 136 q 43 342 43 244 q 117 496 43 439 q 283 547 183 547 q 388 531 333 547 l 388 628 l 0 628 l 0 729 l 699 729 l 699 628 l 519 628 l 519 531 q 626 547 574 547 q 710 519 679 547 l 694 401 m 288 438 q 185 346 185 438 q 297 249 185 249 q 388 267 339 249 l 388 417 q 288 438 332 438 z "},"T":{"ha":488,"x_min":0,"x_max":565,"o":"m 526 628 l 0 628 l 0 729 l 526 729 l 526 628 m 540 400 q 293 400 565 400 q 210 369 246 400 q 175 292 175 339 q 349 131 175 140 q 286 19 321 82 q 103 106 171 28 q 36 299 36 183 q 118 465 36 410 q 304 515 188 515 l 540 515 l 540 400 z "},"U":{"ha":485,"x_min":0,"x_max":511,"o":"m 511 628 l 364 628 q 440 374 440 524 q 390 196 440 263 q 226 119 335 119 q 92 169 143 119 q 42 304 42 219 q 79 413 42 364 q 179 468 119 467 l 247 385 q 232 386 238 386 q 189 362 206 386 q 172 308 172 338 q 233 240 172 240 q 308 363 308 240 q 283 500 308 425 q 207 628 254 589 l 0 628 l 0 729 l 511 729 l 511 628 z "},"V":{"ha":756,"x_min":-1,"x_max":810,"o":"m 808 232 q 675 206 742 206 q 531 246 592 206 q 458 371 458 290 q 524 507 458 458 q 674 550 582 550 q 810 524 742 550 l 807 424 q 688 454 736 454 q 600 375 600 454 q 689 301 600 301 q 810 333 742 301 l 808 232 m 415 628 q 460 504 460 568 q 413 364 460 429 q 286 274 365 299 q 563 164 421 164 q 674 179 614 164 l 668 51 q 547 36 607 36 q 222 147 379 36 q 40 433 51 268 l 172 490 q 199 385 175 435 q 288 426 253 392 q 324 510 324 460 q 244 619 324 586 q 224 628 226 628 q -1 628 219 628 l -1 729 l 789 729 l 789 628 l 415 628 z "},"W":{"ha":424,"x_min":0,"x_max":489,"o":"m 489 628 l 406 628 l 406 729 l 489 729 l 489 628 m 249 101 q 98 157 156 101 q 40 306 40 213 q 108 450 40 390 q 60 565 60 507 q 74 628 60 593 l 0 628 l 0 729 l 99 729 l 99 669 q 236 729 164 729 q 285 722 258 729 l 299 621 q 281 621 288 621 q 192 551 192 621 q 210 497 192 525 q 258 501 236 501 q 329 493 292 501 l 328 376 q 268 392 294 392 q 199 367 229 392 q 168 306 168 343 q 276 218 168 218 q 369 239 322 218 q 456 307 426 263 l 475 179 q 249 101 379 101 z "},"X":{"ha":665,"x_min":0,"x_max":697,"o":"m 697 628 l 515 628 l 515 471 l 290 471 q 181 414 181 471 q 228 360 181 394 q 508 401 340 401 q 690 393 603 401 l 685 283 q 476 294 578 294 q 176 132 176 294 q 236 26 176 63 q 360 -3 285 -3 q 574 76 490 -3 l 574 -78 q 360 -126 479 -126 q 144 -71 231 -126 q 44 115 44 -6 q 119 297 44 224 q 46 433 46 347 q 214 565 46 550 q 276 568 242 568 q 329 567 297 568 q 381 565 368 565 l 381 628 l 0 628 l 0 729 l 697 729 l 697 628 z "},"Y":{"ha":596,"x_min":0,"x_max":631,"o":"m 631 163 q 396 92 524 92 q 167 157 269 92 q 22 346 57 226 l 143 435 q 147 403 144 418 q 219 390 186 390 q 334 438 286 390 q 382 554 382 486 q 296 647 382 647 q 256 634 274 647 q 239 599 239 621 q 292 556 239 556 q 339 565 310 556 l 307 467 q 253 458 278 458 q 151 501 192 458 q 111 606 111 544 q 113 628 111 613 l 0 628 l 0 729 l 117 729 l 117 656 q 286 754 174 754 q 500 639 425 754 l 500 729 l 629 729 l 629 628 l 503 628 q 519 538 519 581 q 443 351 519 426 q 243 269 367 275 q 401 221 329 221 q 631 317 518 221 l 631 163 z "},"Z":{"ha":622,"x_min":0,"x_max":651,"o":"m 117 628 l 0 628 l 0 729 l 117 729 l 117 628 m 651 628 l 500 628 q 521 525 521 575 q 443 325 521 406 q 235 240 363 240 q 439 133 336 133 q 528 156 481 133 l 500 0 q 433 -10 467 -10 q 178 103 300 -10 q 22 346 63 208 l 143 435 q 160 369 147 401 q 219 360 192 360 q 339 413 292 360 q 386 539 386 467 q 363 616 386 585 q 296 647 340 647 q 243 596 243 647 q 303 543 243 543 q 349 551 321 543 l 317 453 q 264 444 288 444 q 158 492 200 444 q 115 604 115 539 q 167 717 115 675 q 286 754 213 754 q 500 632 425 754 l 500 729 l 651 729 l 651 628 z "},"[":{"ha":0,"x_min":-331,"x_max":42,"o":"m 31 -232 q -110 -249 -43 -249 q -331 -85 -331 -249 q -256 8 -331 -22 q -126 31 -200 31 q 3 6 -46 31 l 6 -81 q -115 -58 -46 -58 q -165 -62 -147 -58 q -203 -99 -203 -71 q -96 -154 -203 -154 q 42 -137 -36 -154 l 31 -232 z "},"\\":{"ha":0,"x_min":-231,"x_max":107,"o":"m 43 -228 q -94 -144 -10 -211 q -231 -60 -178 -76 l -174 15 q -67 -44 -126 1 q 32 -122 -17 -83 q 107 -161 68 -147 l 43 -228 z "},"]":{"ha":0,"x_min":-554,"x_max":-61,"o":"m -207 696 q -350 821 -272 768 q -518 886 -446 886 q -554 881 -535 886 l -533 992 l -506 992 q -247 911 -362 996 q -61 696 -156 842 l -207 696 z "},"^":{"ha":746,"x_min":40,"x_max":646,"o":"m 432 75 q 549 -60 467 -22 l 451 -117 q 325 65 368 -75 q 128 115 203 67 q 40 285 40 172 q 100 438 40 375 q 44 558 44 488 q 121 694 44 646 q 279 735 186 735 q 489 679 432 735 l 458 578 q 290 626 389 626 q 174 563 174 626 q 200 493 174 535 q 297 506 247 506 q 385 497 338 506 l 378 393 q 321 397 350 397 q 172 289 172 397 q 307 179 172 192 q 365 335 311 279 q 514 392 418 392 q 608 358 571 392 q 646 267 646 324 q 432 75 646 119 m 504 293 q 418 190 435 293 q 529 265 529 218 q 504 293 529 293 z "},"_":{"ha":368,"x_min":63,"x_max":272,"o":"m 131 -67 l 63 -1 q 154 404 154 158 q 63 781 154 635 l 135 821 q 272 401 272 618 q 233 160 272 300 q 131 -67 190 0 z "},"`":{"ha":847,"x_min":0,"x_max":878,"o":"m 878 628 l 757 628 l 756 75 l 624 75 l 624 243 q 569 240 593 240 q 507 244 539 240 q 417 119 482 164 q 263 74 353 74 q 40 238 111 74 l 108 350 q 256 189 172 189 q 347 228 313 189 q 382 326 382 268 q 354 410 382 375 q 278 446 326 446 q 169 410 232 446 l 154 531 q 293 563 229 563 q 443 503 383 563 q 514 350 503 443 q 578 346 551 346 q 624 349 597 346 l 624 628 l 0 628 l 0 729 l 878 729 l 878 628 z "},"a":{"ha":608,"x_min":0,"x_max":642,"o":"m 642 628 l 519 628 l 519 75 l 388 75 l 388 154 q 278 136 329 136 q 114 189 179 136 q 43 342 43 244 q 117 496 43 439 q 283 547 183 547 q 388 531 333 547 l 388 628 l 0 628 l 0 729 l 642 729 l 642 628 m 288 438 q 261 436 281 438 l 388 281 l 388 417 q 288 438 332 438 m 204 407 q 185 346 185 378 q 297 249 185 249 q 338 251 310 249 l 204 407 z "},"b":{"ha":692,"x_min":0,"x_max":722,"o":"m 722 628 l 547 628 l 546 457 l 307 456 q 171 346 171 454 q 267 204 171 246 q 264 244 264 231 q 316 363 264 317 q 442 408 368 408 q 556 368 510 408 q 603 260 603 328 q 447 94 603 146 q 590 -37 501 17 l 494 -112 q 399 -22 401 -25 q 315 78 346 29 q 119 146 193 82 q 39 333 39 215 q 99 497 39 438 q 264 557 160 557 l 417 557 l 417 628 l 0 628 l 0 729 l 722 729 l 722 628 m 438 307 q 397 260 397 307 q 403 204 397 235 q 471 263 471 225 q 438 307 471 307 z "},"c":{"ha":886,"x_min":0,"x_max":914,"o":"m 914 628 l 789 628 l 788 75 l 656 75 l 656 224 l 550 224 q 461 108 531 147 q 313 72 400 72 q 150 111 224 72 q 35 231 69 154 l 103 346 q 185 240 125 286 q 297 193 246 193 q 383 221 343 193 q 422 293 422 249 q 375 381 422 340 q 317 376 344 376 q 214 390 267 376 l 210 497 q 300 483 256 483 q 413 550 413 483 q 318 619 413 619 q 208 600 271 619 q 115 551 146 581 l 115 689 q 304 733 194 733 q 469 690 404 733 q 543 547 543 642 q 485 426 543 476 q 547 325 531 388 l 656 325 l 657 628 l 564 628 l 564 729 l 914 729 l 914 628 m 82 628 l 0 628 l 0 729 l 82 729 l 82 628 z "},"d":{"ha":778,"x_min":-3,"x_max":811,"o":"m 811 628 l 689 628 l 690 75 l 557 75 l 557 393 l 411 393 l 411 288 q 359 164 411 211 q 229 117 307 117 q 94 169 146 117 q 42 306 42 222 q 83 442 42 389 q 211 501 131 501 l 278 501 l 278 628 l -3 628 l -3 729 l 811 729 l 811 628 m 411 628 l 411 501 l 557 501 l 557 628 l 411 628 m 278 394 l 231 394 q 171 315 171 394 q 229 238 171 238 q 278 294 278 238 l 278 394 z "},"e":{"ha":778,"x_min":0,"x_max":811,"o":"m 308 729 l 308 728 q 410 603 410 706 l 410 501 l 557 501 l 557 628 l 513 628 l 513 729 l 811 729 l 811 628 l 689 628 l 690 75 l 557 75 l 557 393 l 411 393 l 411 288 q 358 164 411 211 q 229 117 306 117 q 94 169 146 117 q 42 306 42 222 q 85 442 42 388 q 211 501 132 501 l 278 501 l 278 628 l 0 628 l 0 729 l 276 729 l 276 729 q 301 729 292 731 l 308 729 m 278 394 l 231 394 q 171 310 171 394 q 226 233 171 233 q 264 252 250 233 q 278 294 278 271 l 278 394 z "},"f":{"ha":261,"x_min":-21,"x_max":293,"o":"m 293 628 l 171 628 l 172 75 l 40 75 l 40 628 l -21 628 l -21 729 l 293 729 l 293 628 z "},"g":{"ha":756,"x_min":0,"x_max":786,"o":"m 786 628 l 664 628 l 665 75 l 532 75 l 532 404 l 390 404 q 424 279 424 336 q 374 134 424 193 q 239 75 324 75 q 97 138 151 75 q 46 285 46 196 q 275 515 46 515 l 532 515 l 531 628 l 0 628 l 0 729 l 786 729 l 786 628 m 257 403 q 174 294 174 393 q 231 182 174 182 q 278 219 258 182 q 294 281 294 251 q 257 403 294 365 z "},"h":{"ha":840,"x_min":0,"x_max":871,"o":"m 871 628 l 750 628 l 750 75 l 618 75 l 618 429 l 453 429 q 513 290 513 361 q 442 138 513 197 q 278 78 372 78 q 101 144 163 78 q 38 329 40 211 l 165 390 q 163 368 163 378 q 188 257 163 308 q 272 194 219 194 q 349 226 319 194 q 378 306 378 258 q 342 396 378 361 q 247 429 306 431 l 247 532 l 619 532 l 619 628 l 0 628 l 0 729 l 871 729 l 871 628 z "},"i":{"ha":410,"x_min":-28,"x_max":472,"o":"m 472 197 q 377 160 439 176 q 275 144 315 144 q 107 203 171 144 q 43 365 43 263 l 43 628 l -28 628 l -28 729 l 456 729 l 456 628 l 249 628 l 472 332 l 472 197 m 182 586 l 182 367 q 213 295 182 324 q 288 267 244 267 q 404 289 332 267 l 182 586 z "},"j":{"ha":608,"x_min":0,"x_max":642,"o":"m 642 628 l 519 628 l 519 75 l 388 75 l 388 154 q 278 136 329 136 q 114 189 179 136 q 43 342 43 244 q 117 496 43 439 q 283 547 183 547 q 388 531 333 547 l 388 628 l 0 628 l 0 729 l 642 729 l 642 628 m 288 438 q 185 346 185 438 q 297 249 185 249 q 388 267 339 249 l 388 417 q 288 438 332 438 z "},"k":{"ha":647,"x_min":-28,"x_max":678,"o":"m 678 628 l 557 628 l 556 75 l 424 75 l 424 185 q 275 144 339 144 q 107 203 171 144 q 43 365 43 263 l 43 628 l -28 628 l -28 729 l 678 729 l 678 628 m 182 628 l 182 367 q 213 295 182 324 q 288 267 244 267 q 424 308 361 267 l 425 628 l 182 628 z "},"l":{"ha":264,"x_min":-14,"x_max":719,"o":"m 599 704 q 518 838 596 789 q 367 878 453 878 q 174 729 192 878 l 294 729 l 294 628 l 174 628 l 174 75 l 42 75 l 42 628 l -14 628 l -14 729 l 42 729 q 147 925 44 856 q 365 988 236 988 q 604 918 504 988 q 719 704 717 840 l 599 704 z "},"m":{"ha":336,"x_min":-126,"x_max":368,"o":"m -26 628 l -26 729 l 367 729 l 368 628 l -26 628 m 40 133 l 11 226 q 101 332 101 251 q -3 424 101 424 q -126 383 -62 424 l -126 499 q 29 547 -61 547 q 175 483 117 547 q 229 333 229 422 q 178 194 229 249 q 40 133 128 139 z "},"n":{"ha":843,"x_min":0,"x_max":874,"o":"m 874 628 l 753 628 l 751 75 l 619 75 l 619 394 q 568 407 592 407 q 489 353 515 407 q 471 244 465 306 l 340 272 q 338 314 338 294 q 351 399 338 354 q 278 417 313 417 q 178 301 178 417 q 318 133 178 133 q 393 144 350 133 l 394 40 q 297 28 342 28 q 112 101 181 28 q 43 293 43 175 q 102 471 43 403 q 268 539 161 539 q 418 489 361 539 q 525 525 468 525 q 621 504 567 525 l 621 628 l 0 628 l 0 729 l 874 729 l 874 628 z "},"o":{"ha":768,"x_min":0,"x_max":804,"o":"m 804 628 l 683 628 l 682 75 l 550 75 l 550 160 q 386 117 465 117 q 165 201 263 117 q 40 410 74 283 l 151 489 q 174 421 160 453 q 208 414 193 414 q 283 448 251 414 q 314 525 314 482 q 243 628 314 588 l 0 628 l 0 729 l 804 729 l 804 628 m 408 628 q 443 517 443 571 q 390 381 443 438 q 250 313 336 324 q 407 242 332 242 q 550 294 478 242 l 551 628 l 408 628 z "},"p":{"ha":647,"x_min":0,"x_max":678,"o":"m 678 628 l 522 628 q 543 547 543 586 q 482 429 543 479 q 554 271 554 368 q 481 119 554 172 q 313 72 415 72 q 150 111 224 72 q 35 231 69 154 l 103 331 q 184 233 124 275 q 294 192 244 192 q 379 218 342 192 q 422 293 422 247 q 378 378 422 340 l 372 383 q 308 378 338 378 q 214 390 261 378 l 210 497 q 300 483 257 483 q 413 550 413 483 q 361 628 413 590 l 0 628 l 0 729 l 678 729 l 678 628 z "},"q":{"ha":774,"x_min":0,"x_max":804,"o":"m 804 628 l 683 628 l 682 75 l 550 75 l 550 215 q 350 65 421 103 q 118 8 246 8 q 43 13 83 8 l 43 128 q 115 117 81 117 q 481 303 288 117 q 293 404 406 404 q 124 294 181 404 l 36 406 q 274 526 114 526 q 550 401 440 526 l 551 628 l 0 628 l 0 729 l 804 729 l 804 628 z "},"r":{"ha":703,"x_min":0,"x_max":733,"o":"m 733 628 l 614 628 l 613 75 l 481 75 l 481 158 q 299 113 389 113 q 146 158 206 113 q 81 300 81 208 q 131 429 81 363 q 40 447 78 431 l 40 554 q 110 544 76 544 q 214 559 144 544 q 319 574 283 574 q 399 554 361 574 l 400 453 q 367 463 381 463 q 272 412 319 463 q 225 314 225 361 q 319 218 225 218 q 481 279 400 218 l 482 628 l 0 628 l 0 729 l 733 729 l 733 628 z "},"s":{"ha":915,"x_min":0,"x_max":949,"o":"m 949 628 l 521 628 l 519 531 q 626 547 574 547 q 774 487 715 547 q 832 336 832 426 q 779 195 832 251 q 638 133 726 139 l 608 228 q 690 342 690 251 q 608 432 690 432 q 519 410 571 432 l 519 75 l 388 75 l 388 154 q 278 136 329 136 q 114 189 179 136 q 43 342 43 244 q 117 496 43 439 q 283 547 183 547 q 388 531 333 547 l 388 628 l 0 628 l 0 729 l 949 729 l 949 628 m 288 438 q 185 346 185 438 q 297 249 185 249 q 388 267 339 249 l 388 417 q 288 438 332 438 z "},"t":{"ha":742,"x_min":0,"x_max":763,"o":"m 763 628 l 642 628 l 640 75 l 508 75 l 508 400 q 399 400 475 400 q 293 400 328 400 q 210 369 246 400 q 175 292 175 339 q 349 131 175 140 l 286 19 q 103 107 171 26 q 36 299 36 183 q 118 465 36 410 q 304 515 188 515 l 510 515 l 510 628 l 0 628 l 0 729 l 763 729 l 763 628 z "},"u":{"ha":763,"x_min":0,"x_max":788,"o":"m 788 628 l 668 628 l 667 75 l 535 75 l 535 628 l 364 628 q 440 374 440 524 q 390 196 440 263 q 226 119 335 119 q 92 169 142 119 q 42 304 42 219 q 79 413 42 364 q 179 468 119 467 l 247 385 q 232 386 238 386 q 189 362 206 386 q 172 308 172 338 q 233 240 172 240 q 308 363 308 240 q 283 500 308 425 q 207 628 254 589 l 0 628 l 0 729 l 788 729 l 788 628 z "},"v":{"ha":967,"x_min":-1,"x_max":997,"o":"m 881 628 l 881 75 l 749 75 l 749 214 q 675 206 708 206 q 529 246 590 206 q 458 371 458 290 q 524 507 458 458 q 674 550 582 550 q 749 542 707 550 l 749 628 l 415 628 q 460 504 460 568 q 413 364 460 429 q 286 274 365 299 q 563 164 421 164 q 674 179 614 164 l 668 51 q 547 36 607 36 q 222 147 379 36 q 40 433 51 268 l 172 490 q 200 385 176 435 q 288 426 253 392 q 324 510 324 460 q 244 619 324 586 q 224 628 226 628 q -1 628 219 628 l -1 729 l 997 729 l 997 628 l 881 628 m 688 454 q 600 375 600 454 q 689 301 600 301 q 749 310 715 301 l 749 444 q 688 454 714 454 z "},"w":{"ha":667,"x_min":0,"x_max":697,"o":"m 697 628 l 576 628 l 576 75 l 444 75 l 444 157 q 249 101 347 101 q 98 157 156 101 q 40 306 40 213 q 108 450 40 390 q 60 565 60 507 q 74 628 60 593 l 0 628 l 0 729 l 100 729 l 100 669 q 236 729 164 729 q 285 722 258 729 l 299 621 q 281 621 288 621 q 192 551 192 621 q 210 497 192 525 q 258 501 236 501 q 329 493 292 501 l 328 376 q 267 392 294 392 q 199 367 229 392 q 168 306 168 343 q 275 218 168 218 q 364 235 318 218 q 444 286 418 254 l 444 628 l 406 628 l 406 729 l 697 729 l 697 628 z "},"x":{"ha":665,"x_min":0,"x_max":697,"o":"m 697 628 l 515 628 l 515 471 l 290 471 q 193 426 193 471 q 218 382 193 407 q 372 415 296 415 q 515 372 458 415 q 576 239 576 325 q 517 110 576 168 q 388 54 458 53 l 299 157 q 324 156 314 156 q 399 178 361 156 q 442 240 442 204 q 374 296 442 296 q 244 256 306 296 q 176 146 176 210 q 244 28 176 71 q 381 -10 303 -10 q 574 63 497 -10 l 574 -83 q 367 -132 475 -132 q 143 -64 232 -132 q 44 139 44 10 q 114 310 44 232 q 40 439 40 357 q 211 565 40 550 q 276 568 240 568 q 329 567 299 568 q 381 565 369 565 l 381 628 l 0 628 l 0 729 l 697 729 l 697 628 z "},"y":{"ha":822,"x_min":0,"x_max":851,"o":"m 851 628 l 728 628 l 726 75 l 594 75 l 594 140 q 396 92 496 92 q 167 157 269 92 q 22 346 57 226 l 143 435 q 147 403 144 418 q 219 390 186 390 q 334 438 286 390 q 382 554 382 486 q 296 647 382 647 q 256 634 274 647 q 239 599 239 621 q 292 556 239 556 q 339 565 310 556 l 307 467 q 253 458 278 458 q 151 501 192 458 q 111 606 111 544 q 113 628 111 613 l 0 628 l 0 729 l 117 729 l 117 656 q 286 754 174 754 q 500 639 425 754 l 500 729 l 851 729 l 851 628 m 503 628 q 519 538 519 581 q 443 351 519 426 q 243 269 367 275 q 401 221 329 221 q 594 288 500 221 l 596 628 l 503 628 z "},"z":{"ha":822,"x_min":0,"x_max":865,"o":"m 865 628 l 726 628 l 726 75 l 594 75 l 596 628 l 500 628 q 521 525 521 575 q 443 325 521 406 q 235 240 363 240 q 439 133 336 133 q 528 156 481 133 l 500 0 q 433 -10 467 -10 q 178 103 300 -10 q 22 346 63 208 l 143 435 q 160 369 149 401 q 219 360 192 360 q 339 413 292 360 q 386 539 386 467 q 363 616 386 585 q 296 647 340 647 q 243 596 243 647 q 303 543 243 543 q 349 551 321 543 l 317 453 q 264 444 288 444 q 158 492 200 444 q 115 604 115 539 q 167 717 115 675 q 286 754 213 754 q 500 632 425 754 l 500 729 l 865 729 l 865 628 m 117 628 l 0 628 l 0 729 l 117 729 l 117 628 z "},"{":{"ha":0,"x_min":-225,"x_max":128,"o":"m 128 849 q 25 868 68 868 q -58 842 -25 868 q -92 767 -92 815 q -74 694 -92 735 l -194 692 q -225 790 -225 738 q -157 932 -225 876 q -4 983 -93 983 q 128 958 57 983 l 128 849 z "},"|":{"ha":0,"x_min":-675,"x_max":-249,"o":"m -250 104 q -431 -24 -304 36 q -647 -94 -546 -78 l -675 10 q -446 86 -562 22 q -249 242 -329 150 l -250 104 z "},"}":{"ha":0,"x_min":-643,"x_max":-81,"o":"m -294 697 q -432 790 -329 749 q -590 828 -525 828 q -643 817 -618 828 l -640 910 q -574 919 -606 919 q -237 764 -406 919 q -499 946 -346 946 q -542 942 -517 946 l -522 1024 q -461 1031 -490 1031 q -224 928 -333 1031 q -81 697 -124 833 l -294 697 z "},"~":{"ha":624,"x_min":0,"x_max":675,"o":"m 656 628 l 0 628 l 0 729 l 656 729 l 656 628 m 675 261 q 569 250 624 250 q 508 254 540 250 q 421 122 486 169 q 263 74 356 74 q 40 251 117 74 l 108 350 q 256 189 172 189 q 347 228 313 189 q 382 326 382 268 q 354 410 382 375 q 278 446 326 446 q 169 410 232 446 l 154 531 q 293 563 229 563 q 443 503 383 563 q 514 350 503 443 q 578 346 551 346 q 675 357 621 346 l 675 261 z "},"Ä":{"ha":1063,"x_min":0,"x_max":1096,"o":"m 1096 628 l 683 628 l 683 522 q 765 533 726 533 q 910 471 854 533 q 965 318 965 408 q 915 174 965 233 q 776 106 864 115 l 747 214 q 838 325 838 238 q 811 396 838 368 q 743 424 785 424 q 683 411 717 424 l 682 75 l 550 75 l 550 215 q 350 65 421 103 q 118 8 246 8 q 43 13 83 8 l 43 128 q 115 117 81 117 q 481 303 288 117 q 293 404 406 404 q 124 294 181 404 l 36 406 q 274 526 114 526 q 550 401 440 526 l 551 628 l 0 628 l 0 729 l 1096 729 l 1096 628 z "},"Å":{"ha":665,"x_min":0,"x_max":697,"o":"m 697 628 l 515 628 l 515 471 l 290 471 q 181 428 181 471 q 217 379 181 407 q 368 413 292 413 q 496 381 438 413 q 567 279 567 342 q 475 182 567 182 q 393 176 421 182 q 335 119 335 163 q 404 83 335 83 q 550 129 439 83 l 560 47 q 369 4 460 4 q 275 32 313 4 q 233 119 233 64 q 281 211 233 178 q 382 246 321 240 q 424 250 394 247 q 464 271 464 256 q 429 304 464 290 q 376 315 401 315 q 242 265 304 315 q 179 143 179 215 q 234 2 179 54 q 379 -50 289 -50 q 571 22 479 -50 l 574 -106 q 381 -147 481 -147 q 149 -75 243 -147 q 44 139 44 4 q 118 313 44 235 q 46 447 46 369 q 235 565 46 565 l 381 565 l 381 628 l 0 628 l 0 729 l 697 729 l 697 628 z "},"Ö":{"ha":525,"x_min":42,"x_max":424,"o":"m 424 392 l 42 392 l 43 489 l 424 489 l 424 392 m 422 217 l 42 217 l 42 315 l 424 315 l 422 217 z "},"Ü":{"ha":622,"x_min":42,"x_max":535,"o":"m 158 485 q 101 508 125 485 q 78 565 78 532 q 101 622 78 599 q 158 646 125 646 q 215 622 192 646 q 239 565 239 599 q 215 508 239 532 q 158 485 192 485 m 133 39 l 42 64 l 432 750 l 535 735 l 133 39 m 421 139 q 364 163 388 139 q 340 219 340 186 q 364 276 340 253 q 421 300 388 300 q 478 276 454 300 q 501 219 501 253 q 478 163 501 186 q 421 139 454 139 z "},"â":{"ha":922,"x_min":42,"x_max":794,"o":"m 778 511 l 554 368 q 658 101 658 111 q 642 85 658 85 q 619 96 632 85 l 419 269 l 218 96 q 197 85 206 85 q 176 106 176 85 q 222 225 176 111 l 281 369 l 60 511 q 42 536 42 524 q 68 554 42 554 q 336 532 83 554 q 397 794 356 621 q 417 813 401 813 q 442 781 433 813 l 499 532 q 765 554 750 554 q 794 532 794 554 q 778 511 794 521 z "},"ä":{"ha":1057,"x_min":33,"x_max":940,"o":"m 919 135 l 832 135 q 779 276 808 188 l 767 275 q 689 219 736 253 q 593 199 663 204 q 531 192 565 197 q 499 151 524 188 q 456 131 483 131 q 390 218 386 131 q 331 192 350 192 q 288 229 288 192 q 301 271 288 240 q 263 265 272 265 q 228 299 228 265 q 296 389 228 335 l 325 413 q 103 394 143 394 q 33 435 33 394 q 101 476 33 467 l 344 508 q 424 515 396 515 q 461 513 439 515 l 786 476 q 821 529 801 507 l 919 529 q 940 319 940 432 q 919 135 940 221 z "},"ã":{"ha":1058,"x_min":49,"x_max":958,"o":"m 892 394 q 663 413 850 394 l 692 389 q 761 296 761 333 q 729 265 761 265 q 685 274 719 265 q 700 225 700 239 q 661 192 700 192 q 597 221 640 192 q 600 188 600 196 q 535 131 600 131 q 493 150 507 131 q 467 186 479 169 q 428 199 456 197 q 381 200 414 199 q 243 263 306 207 q 210 276 229 274 q 157 135 181 186 l 68 135 q 49 314 49 221 q 71 529 49 431 l 168 529 q 203 476 188 507 l 526 513 q 565 515 549 515 q 643 508 592 515 l 888 476 q 958 432 958 467 q 892 394 958 394 z "},"å":{"ha":696,"x_min":0,"x_max":722,"o":"m 722 628 l 546 628 l 546 457 l 307 456 q 171 346 171 454 q 267 204 171 244 q 264 244 264 231 q 316 363 264 317 q 442 408 368 408 q 556 368 510 408 q 603 260 603 328 q 447 94 603 146 q 590 -37 501 17 l 494 -112 q 435 -57 476 -96 q 367 -135 397 -110 q 207 -193 297 -193 q 97 -161 143 -193 q 46 -64 46 -125 q 67 15 46 -25 q 179 107 90 64 q 39 333 39 181 q 99 497 39 438 q 264 557 160 557 l 417 557 l 417 628 l 0 628 l 0 729 l 722 729 l 722 628 m 440 314 q 410 297 422 314 q 397 260 397 279 q 403 204 397 236 q 471 263 471 226 q 440 314 471 314 m 314 78 q 217 18 260 51 q 167 -42 167 -19 q 185 -76 167 -62 q 225 -90 203 -90 q 364 14 294 -90 q 314 78 335 46 z "},"ç":{"ha":1222,"x_min":43,"x_max":1128,"o":"m 763 842 q 712 863 733 842 q 690 913 690 883 q 710 960 690 940 q 758 979 731 979 q 808 958 788 979 q 829 908 829 938 q 810 861 829 881 q 763 842 790 842 m 742 696 q 531 788 592 696 l 572 883 q 753 797 647 797 q 913 868 847 797 l 944 778 q 742 696 894 696 m 917 140 q 797 197 843 140 q 750 331 750 254 q 757 378 750 356 q 853 399 800 389 q 849 368 849 382 q 864 296 849 329 q 917 253 882 253 q 988 322 964 253 q 1004 431 1004 371 q 992 521 1004 481 q 939 579 975 579 q 882 549 907 579 q 846 489 876 542 q 718 407 796 407 q 622 471 661 407 q 568 429 597 446 q 683 281 683 400 q 616 130 683 186 q 453 74 549 74 q 242 132 313 74 q 158 279 186 178 q 114 468 136 374 q 43 542 96 536 l 126 657 q 235 496 203 642 q 261 363 247 429 q 314 239 281 281 q 431 185 357 185 q 539 274 539 185 q 503 352 539 322 q 418 382 467 382 q 363 374 394 382 l 363 494 q 414 485 390 485 q 517 571 517 485 q 431 619 517 619 q 299 575 353 619 l 268 693 q 435 742 346 742 q 657 539 644 742 l 672 549 q 688 554 679 553 q 722 515 694 515 q 763 551 743 515 q 786 606 774 579 q 926 696 829 696 q 1081 608 1026 696 q 1128 429 1128 535 q 1078 238 1128 319 q 917 140 1019 140 z "},"í":{"ha":886,"x_min":0,"x_max":917,"o":"m 917 628 l 794 628 l 793 75 l 661 75 l 661 210 q 619 211 636 211 q 594 211 601 211 q 563 207 579 210 q 526 86 565 133 q 417 39 486 39 q 329 74 364 39 q 294 161 294 108 q 422 285 294 244 q 367 342 426 342 q 231 283 290 342 q 171 147 171 224 q 372 -54 171 -54 q 600 -3 465 -54 l 594 -115 q 358 -157 463 -157 q 138 -90 225 -157 q 42 113 42 -17 q 124 315 42 225 q 43 429 43 357 q 265 564 43 564 q 369 561 300 563 l 369 628 l 0 628 l 0 729 l 917 729 l 917 628 m 504 628 l 503 467 l 279 467 q 169 424 169 467 q 215 385 169 393 q 386 425 296 425 q 492 397 450 425 q 544 300 542 363 q 651 303 600 304 l 661 303 l 663 628 l 504 628 z "},"î":{"ha":651,"x_min":-3,"x_max":689,"o":"m 515 628 l 515 471 l 290 471 q 181 428 181 471 q 208 390 181 390 q 222 392 218 390 q 351 421 299 421 q 493 388 431 421 q 569 274 569 346 q 568 40 569 264 l 474 40 q 396 26 439 26 q 288 58 329 26 q 240 160 240 94 q 290 251 240 215 q 393 282 333 282 q 450 272 417 282 q 363 328 438 328 q 226 281 279 328 q 169 149 169 231 q 238 11 169 63 q 390 -33 300 -33 q 563 0 465 -33 l 560 -103 q 378 -132 461 -132 q 147 -58 243 -132 q 42 151 42 22 q 122 335 42 254 q 56 447 56 368 q 235 565 56 565 l 381 565 l 381 628 l -3 628 l -3 729 l 689 729 l 689 628 l 515 628 m 449 194 q 411 199 428 199 q 328 150 328 199 q 388 108 328 108 q 449 117 413 108 l 449 194 z "},"õ":{"ha":606,"x_min":40,"x_max":507,"o":"m 488 449 q 479 419 488 449 q 415 357 469 390 q 297 324 360 324 q 172 372 229 324 q 171 303 171 294 q 185 235 171 256 q 250 206 203 206 q 301 209 267 206 q 354 213 336 213 q 478 144 443 213 q 506 -10 506 94 l 400 -31 q 318 97 399 97 q 248 88 294 97 q 178 79 201 79 q 40 351 40 79 l 40 729 l 169 731 q 169 540 169 744 q 206 475 169 499 q 282 454 238 454 q 362 483 340 454 q 386 607 383 511 q 383 729 386 601 l 507 729 l 507 647 q 488 449 507 507 z "},"†":{"ha":514,"x_min":0,"x_max":574,"o":"m 574 628 l 0 628 l 0 729 l 574 729 l 574 628 m 560 224 q 465 143 485 158 q 363 71 410 99 q 118 8 253 8 q 43 13 83 8 l 43 128 q 114 117 81 117 q 481 303 288 117 q 293 404 406 404 q 124 294 181 404 l 36 406 q 274 526 114 526 q 439 489 361 526 q 567 376 524 447 l 560 224 z "},"°":{"ha":678,"x_min":0,"x_max":708,"o":"m 708 628 l 503 628 l 503 475 l 239 475 q 188 450 188 475 q 250 419 188 419 l 413 419 q 526 389 475 419 q 588 294 588 354 q 479 179 588 218 l 479 43 l 268 42 q 174 -47 174 42 q 261 -125 174 -101 q 258 -99 258 -106 q 311 -7 258 -42 q 415 22 357 22 q 500 -1 467 22 q 539 -76 539 -28 q 461 -181 539 -146 q 322 -207 401 -207 q 154 -171 228 -207 q 63 -37 63 -124 q 258 122 63 111 q 364 124 281 124 l 364 156 q 300 153 328 153 q 32 228 115 153 l 67 335 q 290 253 149 253 q 381 257 343 253 q 461 296 461 267 q 418 324 461 318 q 369 325 401 325 q 181 331 207 325 q 63 451 63 353 q 213 572 63 557 q 278 575 240 575 q 330 574 296 575 q 376 572 364 572 l 376 628 l 0 628 l 0 729 l 708 729 l 708 628 m 411 -43 q 369 -58 388 -43 q 350 -96 350 -74 q 354 -129 350 -112 q 446 -72 446 -117 q 411 -43 446 -43 z "},"¢":{"ha":681,"x_min":0,"x_max":722,"o":"m 722 628 l 546 628 l 546 457 l 307 456 q 171 346 171 454 q 267 204 171 244 q 264 244 264 231 q 316 363 264 317 q 442 408 368 408 q 556 368 510 408 q 603 260 603 328 q 447 94 603 146 q 590 -37 501 17 l 494 -112 q 463 -83 483 -101 q 346 -175 431 -175 q 233 -87 258 -175 q 168 -128 200 -128 q 79 -61 106 -128 q 65 -106 69 -92 l 19 -83 q 138 132 58 -12 q 39 333 39 206 q 99 497 39 438 q 264 557 160 557 l 417 557 l 417 628 l 0 628 l 0 729 l 722 729 l 722 628 m 440 314 q 410 297 422 314 q 397 260 397 279 q 403 204 397 236 q 471 263 471 226 q 440 314 471 314 m 315 78 q 188 104 246 81 q 132 -4 132 21 q 146 -35 132 -22 q 178 -49 160 -49 q 224 -15 203 -49 q 246 47 242 14 l 314 38 q 306 15 313 31 q 299 -8 299 0 q 303 -69 299 -58 q 353 -96 313 -96 q 397 -22 386 -96 q 315 78 344 31 z "},"£":{"ha":454,"x_min":0,"x_max":489,"o":"m 246 113 q 95 163 150 113 q 40 308 40 213 q 104 451 40 392 q 60 558 60 504 q 78 628 60 586 l 0 628 l 0 729 l 488 729 l 488 628 l 264 628 q 189 561 189 621 q 211 500 189 532 q 251 504 233 504 q 329 493 288 504 l 328 390 q 269 399 294 399 q 197 376 226 399 q 168 313 168 354 q 258 225 168 225 q 369 251 311 225 q 469 335 438 283 l 489 193 q 246 113 400 113 z "},"§":{"ha":654,"x_min":0,"x_max":686,"o":"m 686 628 l 500 628 l 500 464 q 319 463 357 467 q 171 382 171 450 q 239 310 171 335 q 344 293 288 293 q 521 386 463 293 l 568 268 q 461 197 535 224 l 461 53 q 303 54 313 54 q 219 40 257 54 q 168 -17 168 22 q 221 -75 168 -56 q 307 -90 260 -90 q 481 -24 435 -90 l 525 -125 q 322 -193 468 -193 q 140 -153 218 -193 q 42 -8 42 -103 q 283 147 42 147 q 336 146 307 147 l 336 174 l 317 174 q 131 226 210 172 q 40 392 40 288 q 124 539 40 486 q 236 569 164 564 q 365 571 261 572 l 365 628 l 0 628 l 0 729 l 686 729 l 686 628 z "},"•":{"ha":678,"x_min":0,"x_max":708,"o":"m 708 628 l 503 628 l 503 467 l 239 467 q 188 442 188 467 q 250 411 188 411 l 413 411 q 531 374 479 411 q 588 267 588 332 q 481 133 588 178 q 300 103 404 103 q 214 113 258 103 q 185 89 185 106 q 247 58 185 58 l 410 58 q 528 21 476 58 q 585 -86 585 -21 q 478 -218 585 -175 q 297 -250 401 -250 q 29 -150 138 -250 l 64 -40 q 288 -135 157 -135 q 376 -126 335 -135 q 444 -82 444 -112 q 367 -43 444 -43 l 213 -43 q 108 -10 151 -43 q 60 88 60 28 q 86 161 60 126 q 32 201 56 181 l 67 313 q 290 217 160 217 q 379 226 338 217 q 447 271 447 240 q 369 308 447 308 l 215 308 q 111 343 154 308 q 63 439 63 379 q 276 567 63 567 q 329 565 296 567 q 376 564 363 564 l 376 628 l 0 628 l 0 729 l 708 729 l 708 628 z "},"¶":{"ha":724,"x_min":0,"x_max":756,"o":"m 756 628 l 535 628 l 535 468 q 401 468 542 468 q 264 456 310 468 q 175 363 175 433 q 228 290 175 315 q 322 274 268 274 q 425 283 376 274 q 503 335 503 299 q 389 378 503 379 l 450 464 l 465 465 q 578 432 528 467 q 633 332 633 393 q 493 190 633 235 l 493 51 q 372 51 500 51 q 250 42 290 51 q 167 -37 167 22 q 217 -99 167 -78 q 301 -112 253 -112 q 390 -107 353 -112 q 465 -62 465 -96 q 361 -26 465 -25 l 417 49 l 431 49 q 532 22 486 50 q 583 -64 583 -11 q 468 -181 583 -144 q 289 -206 390 -206 q 129 -167 199 -206 q 44 -36 44 -119 q 382 133 44 139 l 382 168 q 310 165 342 165 q 131 213 207 165 q 40 365 40 268 q 413 563 40 569 l 413 628 l 0 628 l 0 729 l 756 729 l 756 628 z "},"ß":{"ha":801,"x_min":0,"x_max":832,"o":"m 832 628 l 713 628 l 711 75 l 579 75 l 579 218 l 467 218 l 467 163 q 281 72 428 72 q 163 96 215 72 q 96 183 96 126 q 281 296 96 296 q 339 293 307 296 l 339 315 q 276 349 339 346 q 226 349 257 350 q 190 347 192 347 q 43 454 43 347 q 194 575 43 569 q 279 574 203 575 l 278 628 l 0 628 l 0 729 l 832 729 l 832 628 m 400 628 l 400 494 l 225 496 q 187 488 196 496 q 178 454 178 481 q 228 432 178 433 q 265 432 243 431 q 293 433 290 433 q 415 408 375 433 q 467 299 464 378 l 579 299 l 579 628 l 400 628 m 279 222 q 247 219 257 222 q 222 194 222 214 q 290 150 222 150 q 337 165 326 150 q 347 219 347 181 q 279 222 289 222 z "},"®":{"ha":876,"x_min":0,"x_max":908,"o":"m 788 628 l 786 76 l 654 76 l 654 431 l 363 431 q 325 417 356 431 q 185 243 185 356 q 286 136 185 158 q 264 225 264 189 q 317 326 264 289 q 429 363 364 363 q 525 323 490 363 q 560 222 560 283 q 453 65 560 119 q 508 -62 511 -22 l 508 -69 l 407 -103 q 342 36 394 -51 q 296 33 317 33 q 119 83 188 33 q 42 244 42 140 q 158 431 42 358 l 42 431 l 42 532 l 656 532 l 656 628 l 0 628 l 0 729 l 907 729 l 908 628 l 788 628 m 406 258 q 369 219 369 258 q 393 153 369 196 q 436 214 436 178 q 406 258 436 258 z "},"™":{"ha":806,"x_min":-28,"x_max":839,"o":"m 839 628 l 713 628 l 714 75 l 581 75 l 581 628 l 460 628 l 460 371 q 403 219 460 279 q 254 158 346 158 q 97 226 157 158 q 40 389 40 290 l 40 628 l -28 628 l -28 729 l 839 729 l 839 628 m 167 628 l 167 401 q 183 317 167 351 q 247 268 204 268 q 314 313 290 268 q 333 394 333 349 l 333 628 l 167 628 z "},"´":{"ha":1075,"x_min":0,"x_max":1103,"o":"m 1103 628 l 689 628 l 689 531 q 783 540 732 540 q 928 476 872 540 q 983 322 983 413 q 933 180 983 236 q 794 118 882 124 l 765 217 q 856 328 856 240 q 829 399 856 371 q 761 426 803 426 q 689 410 729 426 l 690 75 l 556 75 l 557 393 l 411 393 l 411 288 q 358 164 411 211 q 229 117 306 117 q 94 169 146 117 q 42 306 42 222 q 85 442 42 388 q 211 501 132 501 l 278 501 l 278 628 l 0 628 l 0 729 l 271 729 q 290 731 283 731 q 375 692 340 731 q 410 603 410 653 l 410 501 l 557 501 l 557 628 l 513 628 l 513 729 l 1103 729 l 1103 628 m 278 394 l 231 394 q 171 303 171 394 q 185 250 171 274 q 228 222 200 222 q 278 294 278 222 l 278 394 z "},"Æ":{"ha":506,"x_min":39,"x_max":415,"o":"m 364 793 q 326 743 339 771 q 404 663 404 732 q 381 607 404 631 q 325 583 358 583 q 269 608 293 583 q 246 663 246 632 q 383 876 246 811 l 415 829 q 364 793 397 818 m 121 754 q 199 674 199 743 q 175 618 199 642 q 118 594 151 594 q 63 619 88 594 q 39 674 39 643 q 176 888 39 822 l 224 840 q 121 754 143 806 z "},"Ø":{"ha":767,"x_min":0,"x_max":804,"o":"m 804 628 l 683 628 l 682 75 l 550 75 l 550 160 q 350 103 446 103 q 153 171 236 103 q 40 354 71 239 l 151 417 q 154 404 153 410 q 240 381 182 381 q 324 438 324 381 q 299 482 324 467 q 244 497 274 497 l 43 497 l 44 583 l 313 585 q 410 542 369 585 q 451 443 451 499 q 400 328 451 372 q 276 283 349 283 q 219 286 258 283 q 371 219 297 219 q 550 294 457 219 l 551 628 l 0 628 l 0 729 l 804 729 l 804 628 z "},"±":{"ha":536,"x_min":43,"x_max":451,"o":"m 451 331 l 297 331 l 297 178 l 194 178 l 194 331 l 43 331 l 43 435 l 194 435 l 194 586 l 299 586 l 299 435 l 451 435 l 451 331 z "},"¥":{"ha":351,"x_min":0,"x_max":394,"o":"m 394 628 l 0 628 l 0 729 l 394 729 l 394 628 m 285 336 q 42 401 119 336 l 42 519 q 279 451 122 451 q 378 460 331 451 l 378 344 q 285 336 335 336 z "},"ª":{"ha":807,"x_min":0,"x_max":839,"o":"m 660 365 q 612 385 632 365 q 592 433 592 406 q 610 480 592 461 q 657 499 629 499 q 705 478 685 499 q 725 431 725 458 q 706 384 725 403 q 660 365 686 365 m 839 628 l 503 628 l 503 467 l 240 467 q 193 433 193 467 q 250 397 193 397 l 413 397 q 535 353 482 397 q 588 239 588 308 q 485 97 588 144 q 300 61 407 61 q 32 160 140 61 l 67 271 q 290 175 160 175 q 386 189 343 175 q 447 244 447 207 q 419 285 447 271 q 369 294 397 294 l 215 294 q 110 332 153 294 q 63 432 63 371 q 275 567 63 567 q 326 565 296 567 q 376 564 363 564 l 376 628 l 0 628 l 0 729 l 839 729 l 839 628 z "},"º":{"ha":853,"x_min":0,"x_max":883,"o":"m 883 628 l 492 628 l 490 513 q 586 536 542 536 q 713 488 663 536 q 763 364 763 439 q 585 182 763 196 l 549 288 q 647 361 647 288 q 574 424 647 424 q 492 404 533 424 l 492 128 q 549 135 525 135 q 673 88 622 135 q 724 -33 724 40 q 656 -164 724 -117 q 507 -204 596 -204 q 440 -199 476 -204 l 429 -111 q 461 -118 444 -118 q 588 -26 588 -118 q 525 39 588 39 q 438 -50 433 39 l 372 -50 l 308 -50 q 310 -31 310 -37 q 229 38 310 38 q 161 -37 161 38 q 263 -117 161 -117 q 315 -114 285 -117 l 306 -200 q 229 -210 264 -210 q 96 -162 150 -210 q 42 -36 42 -114 q 91 84 42 39 q 215 129 140 129 q 368 53 326 129 q 418 108 386 81 l 363 108 l 363 190 q 265 171 311 171 q 113 224 176 171 q 44 367 44 281 q 114 500 44 449 q 261 544 175 544 q 367 519 315 544 l 367 628 l 0 628 l 0 729 l 883 729 l 883 628 m 293 435 q 218 418 250 435 q 178 360 178 399 q 214 300 178 322 q 285 282 244 282 q 369 313 336 282 l 369 417 q 293 435 338 435 z "},"æ":{"ha":506,"x_min":39,"x_max":407,"o":"m 297 553 l 260 594 q 299 631 272 606 q 335 692 326 661 q 270 714 296 690 q 244 772 244 738 q 268 828 244 804 q 324 851 292 851 q 407 744 407 851 q 297 553 407 625 m 92 535 l 54 576 q 94 616 67 589 q 128 675 121 643 q 64 696 89 672 q 39 754 39 719 q 62 810 39 786 q 118 833 85 833 q 200 726 200 833 q 92 535 200 607 z "},"ø":{"ha":529,"x_min":0,"x_max":582,"o":"m 582 628 l 408 628 q 443 517 443 571 q 390 381 443 438 q 250 313 336 324 q 407 242 332 242 q 581 319 490 242 l 579 178 q 394 119 490 119 q 169 208 269 119 q 40 424 75 294 l 151 489 q 174 421 160 454 q 208 414 193 414 q 283 448 251 414 q 314 525 314 482 q 243 628 314 588 l 0 628 l 0 729 l 582 729 l 582 628 z "},"¿":{"ha":910,"x_min":-1,"x_max":933,"o":"m 415 628 q 460 503 460 569 l 501 493 q 603 543 536 543 q 754 485 694 543 q 814 336 814 426 q 786 224 814 279 l 664 224 q 703 340 703 282 q 689 403 703 375 q 639 436 671 436 q 596 403 596 436 q 654 368 596 374 l 610 285 q 474 415 479 290 l 444 422 q 243 269 388 279 q 404 190 313 190 q 493 206 443 190 l 489 76 q 381 56 432 56 q 143 176 244 56 q 40 433 49 290 l 172 490 q 188 385 175 435 q 284 422 244 388 q 324 510 324 457 q 244 619 324 586 q 224 628 226 628 q -1 628 219 628 l -1 729 l 933 729 l 933 628 l 415 628 z "},"¡":{"ha":608,"x_min":0,"x_max":644,"o":"m 644 628 l 0 628 l 0 729 l 644 729 l 644 628 m 638 433 l 456 433 q 532 281 532 369 q 435 114 532 176 q 489 8 469 38 q 556 -61 517 -37 l 458 -118 q 325 72 403 -93 q 239 64 281 64 q 100 97 154 64 q 38 219 38 139 q 192 343 38 343 q 379 221 300 343 q 403 282 403 253 q 308 400 403 361 q 139 429 236 431 l 139 536 l 638 536 l 638 433 m 199 247 q 168 233 183 247 q 161 210 161 221 q 239 167 161 167 q 278 171 253 167 q 199 247 233 247 z "},"¬":{"ha":647,"x_min":-28,"x_max":678,"o":"m 678 628 l 557 628 l 556 75 l 424 75 l 424 185 q 275 144 339 144 q 107 203 171 144 q 43 365 43 263 l 43 628 l -28 628 l -28 729 l 678 729 l 678 628 m 247 628 l 424 390 l 425 628 l 247 628 m 182 586 l 182 367 q 213 295 182 324 q 288 267 244 267 q 401 294 336 267 l 182 586 z "},"«":{"ha":0,"x_min":-790,"x_max":-153,"o":"m -228 -222 l -407 -82 q -749 -237 -532 -194 l -790 -135 q -393 49 -606 -97 l -153 -129 l -228 -222 z "},"»":{"ha":732,"x_min":44,"x_max":642,"o":"m 579 599 q 535 617 553 599 q 517 661 517 636 q 535 706 517 688 q 579 725 553 725 q 624 706 606 725 q 642 661 642 688 q 624 617 642 636 q 579 599 606 599 m 347 599 q 303 617 321 599 q 285 661 285 636 q 303 706 285 688 q 347 725 321 725 q 392 706 374 725 q 410 661 410 688 q 392 617 410 636 q 347 599 374 599 m 108 601 q 63 620 82 601 q 44 665 44 639 q 63 709 44 690 q 108 728 82 728 q 153 709 135 728 q 171 665 171 690 q 153 620 171 639 q 108 601 135 601 z "},"…":{"ha":732,"x_min":44,"x_max":642,"o":"m 579 71 q 535 90 553 71 q 517 133 517 108 q 535 178 517 160 q 579 197 553 197 q 624 178 606 197 q 642 133 642 160 q 624 90 642 108 q 579 71 606 71 m 347 71 q 303 90 321 71 q 285 133 285 108 q 303 178 285 160 q 347 197 321 197 q 392 178 374 197 q 410 133 410 160 q 392 90 410 108 q 347 71 374 71 m 108 74 q 63 92 82 74 q 44 138 44 111 q 63 181 44 163 q 108 200 82 200 q 153 181 135 200 q 171 138 171 163 q 153 92 171 111 q 108 74 135 74 z "}," ":{"ha":375,"x_min":0,"x_max":0,"o":""},"À":{"ha":767,"x_min":0,"x_max":794,"o":"m 665 294 l 664 294 q 665 75 665 292 l 532 75 l 531 175 l 376 175 q 414 93 414 139 q 343 13 414 13 q 277 40 303 13 q 251 110 251 68 q 382 254 251 254 l 531 254 l 531 275 q 404 306 469 306 q 250 265 314 306 q 176 132 176 218 q 238 3 176 50 q 378 -40 294 -40 q 574 35 486 -40 l 574 -106 q 365 -150 474 -150 q 143 -86 232 -150 q 44 114 44 -14 q 114 300 44 222 q 46 439 46 350 q 218 565 46 551 q 278 568 246 567 q 331 567 299 568 q 381 565 371 565 l 381 628 l 0 628 l 0 729 l 794 729 l 794 628 l 515 628 l 515 471 l 290 471 q 226 465 249 471 q 181 421 181 456 q 210 368 181 392 q 404 407 299 407 q 556 386 486 407 q 665 294 656 357 z "},"Õ":{"ha":903,"x_min":0,"x_max":935,"o":"m 935 628 l 813 628 l 811 75 l 679 75 l 679 122 q 440 63 538 63 q 332 93 381 63 q 276 185 276 128 q 450 289 276 289 q 481 289 475 289 q 508 308 508 292 q 471 332 508 322 q 417 339 440 339 q 263 301 332 339 q 179 178 179 256 q 263 40 179 89 q 428 0 333 0 q 629 61 542 0 l 629 -47 q 404 -93 522 -93 q 163 -29 261 -93 q 47 182 47 46 q 99 326 47 265 q 46 447 46 383 q 235 565 46 565 l 381 565 l 381 628 l 0 628 l 0 729 l 935 729 l 935 628 m 515 628 l 515 485 l 290 485 q 225 479 246 485 q 182 429 182 467 q 194 393 182 411 q 393 429 283 429 q 535 408 474 429 q 621 314 621 379 q 468 218 621 218 q 393 183 393 218 q 457 149 393 149 q 679 221 546 149 l 681 628 l 515 628 z "},"Œ":{"ha":532,"x_min":0,"x_max":621,"o":"m 582 628 l 0 628 l 0 729 l 582 729 l 582 628 m 596 400 q 293 400 621 400 q 210 369 246 400 q 175 292 175 339 q 349 131 175 140 q 286 19 321 82 q 103 106 171 28 q 36 299 36 183 q 74 428 36 367 l 13 428 l 13 529 l 596 529 l 596 400 z "},"–":{"ha":489,"x_min":43,"x_max":376,"o":"m 43 365 l 44 467 l 375 467 l 376 365 l 43 365 z "},"—":{"ha":606,"x_min":44,"x_max":504,"o":"m 504 365 l 44 365 l 44 467 l 504 467 l 504 365 z "},"“":{"ha":269,"x_min":28,"x_max":199,"o":"m 61 551 l 28 599 q 74 631 43 608 q 118 685 106 654 q 39 765 39 696 q 63 821 39 797 q 119 844 86 844 q 174 820 150 844 q 199 765 199 796 q 61 551 199 617 z "},"‘":{"ha":0,"x_min":-383,"x_max":29,"o":"m -165 744 q -297 781 -239 744 q -383 889 -361 821 l -312 971 q -247 882 -296 914 q -150 853 -204 853 q 10 944 -57 853 l 29 847 q -165 744 -35 744 z "},"’":{"ha":269,"x_min":39,"x_max":210,"o":"m 186 825 q 121 754 135 790 q 199 674 199 743 q 175 618 199 642 q 118 594 151 594 q 63 619 88 594 q 39 674 39 643 q 176 888 39 822 l 210 840 l 186 825 z "},"÷":{"ha":675,"x_min":42,"x_max":568,"o":"m 142 -43 l 42 1 l 464 804 l 568 765 l 142 -43 z "},"ÿ":{"ha":569,"x_min":-21,"x_max":583,"o":"m 396 628 q 464 494 464 561 q 397 362 464 415 q 250 308 331 308 q 214 310 239 308 q 393 169 314 169 q 474 206 432 169 l 482 76 q 399 60 439 60 q 163 199 274 60 q 35 461 65 319 l 138 518 q 175 414 147 481 q 207 413 193 413 q 297 442 258 413 q 335 521 335 471 q 302 594 335 560 q 231 628 269 628 q -21 628 226 628 l -21 729 l 583 729 l 583 628 l 396 628 z "},"‹":{"ha":950,"x_min":0,"x_max":979,"o":"m 811 174 l 811 174 q 797 181 811 174 q 750 206 782 189 q 718 226 718 224 q 722 232 718 229 q 744 313 744 261 q 693 415 744 381 q 579 446 650 446 q 439 414 499 446 q 370 278 429 331 q 228 226 311 226 q 42 376 86 226 l 135 457 q 222 343 144 343 q 288 372 263 343 q 313 442 313 401 q 286 547 313 493 q 215 628 260 601 l 0 628 l 0 729 l 979 729 l 979 628 l 372 628 q 428 522 408 582 q 589 561 508 561 q 780 496 701 561 q 858 319 858 431 q 811 174 858 243 z "},"›":{"ha":692,"x_min":0,"x_max":722,"o":"m 722 628 l 546 628 l 546 457 l 307 456 q 171 346 171 454 q 267 204 171 244 q 264 244 264 231 q 316 363 264 317 q 442 408 368 408 q 556 368 510 408 q 603 260 603 328 q 447 94 603 146 q 590 -37 501 17 l 494 -112 q 430 -53 472 -92 q 357 21 388 -14 q 71 -100 218 -76 l 44 3 q 278 79 153 15 q 39 333 39 124 q 99 497 39 438 q 264 557 160 557 l 417 557 l 417 628 l 0 628 l 0 729 l 722 729 l 722 628 m 440 314 q 410 297 422 314 q 397 260 397 279 q 403 204 397 236 q 471 263 471 226 q 440 314 471 314 z "},"‡":{"ha":947,"x_min":-28,"x_max":978,"o":"m 978 628 l 557 628 l 557 531 q 654 547 607 547 q 800 483 742 547 q 854 333 854 422 q 803 194 854 249 q 665 133 753 139 l 636 228 q 721 336 721 251 q 697 408 721 379 q 631 438 672 438 q 557 418 597 438 l 556 75 l 424 75 l 424 185 q 275 144 339 144 q 107 203 171 144 q 43 365 43 263 l 43 628 l -28 628 l -28 729 l 978 729 l 978 628 m 182 628 l 182 381 q 213 309 182 338 q 288 281 244 281 q 424 322 361 281 l 425 628 l 182 628 z "},"·":{"ha":788,"x_min":-21,"x_max":717,"o":"m 717 631 l 619 631 l 619 81 l 493 81 l 493 122 q 274 47 363 47 q 188 76 224 47 q 147 157 147 107 q 174 228 147 183 l 75 190 l 56 264 l 400 383 l 421 310 q 368 288 403 303 q 311 247 340 274 q 275 190 275 214 q 314 146 275 146 q 492 233 368 146 l 492 369 q 294 431 403 382 q 128 372 215 372 q 43 390 82 372 l 50 471 q 100 460 75 460 q 194 486 139 460 q 143 535 157 515 q 114 622 114 578 q 158 708 114 678 q 254 736 197 736 q 351 700 314 736 q 388 604 388 664 q 357 499 388 554 q 492 465 432 474 l 492 631 l 407 631 l 407 729 l 717 729 l 717 631 m 90 629 l -21 629 l -21 731 l 90 731 l 90 629 m 249 654 q 211 622 211 654 q 265 544 211 585 q 292 617 292 583 q 249 654 292 654 z "},"∙":{"ha":788,"x_min":-21,"x_max":717,"o":"m 717 631 l 619 631 l 619 81 l 493 81 l 493 122 q 274 47 363 47 q 188 76 224 47 q 147 157 147 107 q 174 228 147 183 l 75 190 l 56 264 l 400 383 l 421 310 q 368 288 403 303 q 311 247 340 274 q 275 190 275 214 q 314 146 275 146 q 492 233 368 146 l 492 369 q 294 431 403 382 q 128 372 215 372 q 43 390 82 372 l 50 471 q 100 460 75 460 q 194 486 139 460 q 143 535 157 515 q 114 622 114 578 q 158 708 114 678 q 254 736 197 736 q 351 700 314 736 q 388 604 388 664 q 357 499 388 554 q 492 465 432 474 l 492 631 l 407 631 l 407 729 l 717 729 l 717 631 m 90 629 l -21 629 l -21 731 l 90 731 l 90 629 m 249 654 q 211 622 211 654 q 265 544 211 585 q 292 617 292 583 q 249 654 292 654 z "},"„":{"ha":667,"x_min":0,"x_max":697,"o":"m 697 628 l 576 628 l 576 75 l 444 75 l 444 149 q 260 35 372 85 q 68 -25 157 -11 l 42 78 q 176 110 100 85 q 40 307 40 165 q 108 450 40 390 q 60 565 60 507 q 74 628 60 593 l 0 628 l 0 729 l 100 729 l 100 669 q 236 729 164 729 q 285 722 258 729 l 299 621 q 281 621 288 621 q 192 551 192 621 q 210 497 192 525 q 258 501 236 501 q 329 493 292 501 l 328 376 q 267 392 294 392 q 199 367 229 392 q 168 306 168 343 q 275 218 168 218 q 364 235 318 218 q 444 286 418 254 l 444 628 l 406 628 l 406 729 l 697 729 l 697 628 z "},"‰":{"ha":676,"x_min":0,"x_max":738,"o":"m 738 183 l 567 183 q 478 85 543 125 q 563 -61 511 35 l 465 -112 q 381 47 440 -39 q 279 35 329 35 q 132 60 194 35 q 43 165 43 93 q 85 244 43 213 q 172 272 122 272 q 413 168 308 272 q 442 235 442 199 q 418 290 442 269 q 361 311 394 311 l 221 311 q 117 344 160 311 q 68 442 68 382 q 282 569 68 569 q 332 568 301 569 q 382 567 368 567 l 382 628 l 0 628 l 0 729 l 700 729 l 700 628 l 508 628 l 508 478 l 268 478 q 203 442 203 478 q 269 404 203 404 l 418 404 q 523 368 479 404 q 576 271 567 332 l 738 271 l 738 183 m 213 186 q 175 160 175 186 q 242 122 175 125 q 264 122 250 122 q 317 126 282 122 q 213 186 254 186 z "},"Ê":{"ha":807,"x_min":0,"x_max":839,"o":"m 660 365 q 612 385 632 365 q 592 433 592 406 q 610 480 592 461 q 657 499 629 499 q 705 478 685 499 q 725 431 725 458 q 706 384 725 403 q 660 365 686 365 m 839 628 l 503 628 l 503 467 l 240 467 q 188 435 188 467 q 250 397 188 397 l 413 397 q 535 353 482 397 q 588 240 588 308 q 503 107 588 156 l 504 -207 l 404 -207 l 404 -178 q 265 -260 332 -247 l 247 -179 q 404 -50 331 -160 l 404 71 q 319 61 363 64 q 325 11 325 31 q 286 -111 325 -62 q 174 -165 244 -165 q 81 -134 118 -165 q 44 -49 44 -103 q 158 38 44 35 l 190 -14 q 128 -56 128 -14 q 178 -93 128 -93 q 235 -11 235 -93 q 219 69 235 24 q 32 160 104 93 l 67 271 q 290 175 160 175 q 386 189 343 175 q 447 244 447 207 q 419 285 447 271 q 369 294 397 294 l 215 294 q 110 332 153 294 q 63 432 63 371 q 275 567 63 567 q 326 565 296 567 q 376 564 363 564 l 376 628 l 0 628 l 0 729 l 839 729 l 839 628 z "},"Ë":{"ha":807,"x_min":0,"x_max":839,"o":"m 660 365 q 612 385 632 365 q 592 433 592 406 q 610 480 592 461 q 657 499 629 499 q 705 478 685 499 q 725 431 725 458 q 706 384 725 403 q 660 365 686 365 m 839 628 l 503 628 l 503 467 l 240 467 q 188 435 188 467 q 250 397 188 397 l 413 397 q 535 353 482 397 q 588 240 588 308 q 503 107 588 156 l 504 -207 l 404 -207 l 404 71 q 324 61 365 64 q 333 -8 333 22 q 292 -133 333 -86 q 174 -179 250 -179 q 82 -147 119 -179 q 44 -62 44 -115 q 158 38 44 35 l 190 -14 q 128 -69 128 -17 q 178 -107 128 -107 q 236 -19 236 -107 q 219 69 236 19 q 32 160 104 93 l 67 271 q 290 175 160 175 q 386 189 343 175 q 447 244 447 207 q 419 285 447 271 q 369 294 397 294 l 215 294 q 110 332 153 294 q 63 432 63 371 q 275 567 63 567 q 326 565 296 567 q 376 564 363 564 l 376 628 l 0 628 l 0 729 l 839 729 l 839 628 z "},"Í":{"ha":807,"x_min":0,"x_max":839,"o":"m 660 365 q 612 385 632 365 q 592 433 592 406 q 610 480 592 461 q 657 499 629 499 q 705 478 685 499 q 725 431 725 458 q 706 384 725 403 q 660 365 686 365 m 839 628 l 503 628 l 503 467 l 239 467 q 188 442 188 467 q 250 411 188 411 l 413 411 q 531 374 479 411 q 588 267 588 332 q 356 106 588 131 l 356 68 q 415 76 390 76 q 516 38 475 76 q 557 -61 557 -1 q 520 -151 557 -117 q 425 -189 483 -185 l 403 -132 q 467 -60 467 -115 q 449 -15 467 -33 q 404 3 431 3 q 356 -11 385 3 l 356 -201 l 263 -201 l 263 -183 q 214 -187 235 -187 q 101 -156 147 -187 q 50 -56 50 -119 q 104 44 50 8 q 218 76 150 76 q 264 72 238 76 l 264 104 q 32 201 121 119 l 67 313 q 290 217 160 217 q 379 226 338 217 q 447 271 447 240 q 369 308 447 308 l 215 308 q 111 343 154 308 q 63 439 63 379 q 276 567 63 567 q 329 565 296 567 q 376 564 363 564 l 376 628 l 0 628 l 0 729 l 839 729 l 839 628 m 213 3 q 139 -53 139 3 q 219 -112 139 -112 q 263 -107 238 -112 l 263 -4 q 213 3 233 3 z "},"Î":{"ha":807,"x_min":0,"x_max":839,"o":"m 660 365 q 612 385 632 365 q 592 433 592 406 q 610 480 592 461 q 657 499 629 499 q 705 478 685 499 q 725 431 725 458 q 706 384 725 403 q 660 365 686 365 m 839 628 l 503 628 l 503 467 l 239 467 q 188 442 188 467 q 250 411 188 411 l 413 411 q 531 374 479 411 q 588 267 588 332 q 525 157 588 200 l 525 -197 l 440 -197 l 440 -117 q 424 -117 428 -117 q 335 -93 371 -117 q 292 -17 292 -65 q 331 68 292 38 q 422 94 367 94 q 442 94 428 94 l 442 121 q 300 103 369 103 q 276 103 293 103 q 286 57 286 74 q 245 -26 286 4 q 143 -53 204 -57 q 292 -139 194 -139 q 403 -118 339 -139 l 390 -189 q 283 -204 331 -204 q 111 -135 174 -204 q 29 39 58 -76 l 96 75 q 119 11 101 50 q 139 10 132 10 q 214 71 214 10 q 193 117 214 96 q 32 201 96 143 l 67 313 q 290 217 160 217 q 379 226 338 217 q 447 271 447 240 q 369 308 447 308 l 215 308 q 111 343 154 308 q 63 439 63 379 q 276 567 63 567 q 329 565 296 567 q 376 564 363 564 l 376 628 l 0 628 l 0 729 l 839 729 l 839 628 m 429 35 q 374 -14 374 36 q 431 -58 374 -60 l 440 -58 l 442 35 l 429 35 z "},"Ï":{"ha":807,"x_min":0,"x_max":839,"o":"m 660 365 q 612 385 632 365 q 592 433 592 406 q 610 480 592 461 q 657 499 629 499 q 705 478 685 499 q 725 431 725 458 q 706 384 725 403 q 660 365 686 365 m 839 628 l 503 628 l 503 481 l 239 481 q 188 456 188 481 q 250 425 188 425 l 413 425 q 531 388 479 425 q 588 281 588 346 q 488 150 588 196 l 488 -206 l 386 -206 l 386 -156 q 235 -189 311 -189 q 126 -160 168 -189 q 78 -61 78 -126 q 124 22 78 -12 q 93 90 93 57 q 121 157 93 118 q 32 215 68 183 l 67 326 q 290 231 160 231 q 379 240 338 231 q 447 285 447 254 q 369 322 447 322 l 215 322 q 111 357 154 322 q 63 453 63 393 q 276 581 63 581 q 329 579 296 581 q 376 578 363 578 l 376 628 l 0 628 l 0 729 l 839 729 l 839 628 m 300 117 q 201 129 253 117 q 179 93 179 115 q 199 51 179 72 q 238 54 219 54 q 297 47 265 54 l 297 -21 q 236 -12 261 -12 q 164 -57 164 -12 q 247 -119 164 -119 q 386 -72 339 -119 l 386 122 q 300 117 336 117 z "},"Ì":{"ha":681,"x_min":-17,"x_max":699,"o":"m 699 626 l 610 626 l 608 78 l 482 78 l 482 263 l 261 207 q 322 118 322 176 q 299 55 322 79 q 236 31 275 31 q 147 69 183 31 q 111 161 111 107 q 242 294 111 258 l 482 360 l 482 417 l 217 476 q 247 401 247 435 q 222 342 247 365 q 161 319 197 319 q 85 357 113 319 q 60 442 60 390 q 95 533 60 500 q 188 567 131 567 q 235 563 210 567 l 479 514 l 479 626 l -17 626 l -17 729 l 699 729 l 699 626 z "},"Ó":{"ha":0,"x_min":-667,"x_max":-153,"o":"m -215 -218 q -327 -108 -254 -154 q -467 -62 -400 -62 q -549 -110 -549 -62 q -475 -158 -549 -158 q -354 -136 -418 -158 l -372 -231 q -461 -249 -407 -249 q -597 -217 -542 -249 q -667 -104 -667 -178 q -597 7 -667 -31 q -461 38 -540 38 q -285 -8 -371 38 q -153 -135 -193 -57 l -215 -218 z "},"Ô":{"ha":0,"x_min":-644,"x_max":-272,"o":"m -283 -232 q -424 -249 -357 -249 q -644 -85 -644 -249 q -569 8 -644 -22 q -440 31 -514 31 q -311 6 -360 31 l -308 -81 q -429 -58 -360 -58 q -479 -62 -461 -58 q -517 -99 -517 -71 q -410 -154 -517 -154 q -272 -137 -350 -154 l -283 -232 z "},"Ò":{"ha":0,"x_min":-771,"x_max":-253,"o":"m -471 -254 q -642 -214 -561 -254 q -771 -93 -729 -169 l -714 10 q -476 -156 -626 -156 q -414 -143 -442 -156 q -376 -97 -376 -128 q -437 -50 -376 -50 q -547 -79 -482 -50 l -557 19 q -444 51 -511 51 q -315 15 -369 51 q -253 -97 -253 -26 q -326 -217 -253 -174 q -471 -254 -389 -254 z "},"Û":{"ha":300,"x_min":76,"x_max":225,"o":"m 197 110 l 114 110 l 78 735 q 100 781 76 764 q 151 797 124 797 q 203 781 181 797 q 225 736 225 764 l 197 110 m 156 -64 q 106 -45 126 -64 q 85 3 85 -26 q 106 44 85 28 q 151 61 126 61 q 199 42 176 61 q 221 -1 221 24 q 200 -45 221 -26 q 156 -64 179 -64 z "},"Ù":{"ha":310,"x_min":28,"x_max":199,"o":"m 121 422 q 65 445 88 422 q 42 501 42 468 q 65 556 42 533 q 121 579 88 579 q 176 556 153 579 q 199 501 199 533 q 176 445 199 468 q 121 422 153 422 m 61 -46 l 28 1 q 74 34 43 11 q 117 88 106 57 q 39 167 39 97 q 63 224 39 200 q 119 247 86 247 q 174 223 150 247 q 199 167 199 199 q 61 -46 199 19 z "},"ˆ":{"ha":672,"x_min":-28,"x_max":726,"o":"m 632 438 q 557 418 597 438 l 556 75 l 424 75 l 424 185 q 275 144 339 144 q 107 203 171 144 q 43 365 43 263 l 43 628 l -28 628 l -28 729 l 714 729 l 714 628 l 557 628 l 557 531 q 654 547 607 547 q 725 538 683 547 l 726 385 q 632 438 689 438 m 182 628 l 182 381 q 213 309 182 338 q 288 281 244 281 q 424 310 371 281 l 425 628 l 182 628 z "},"˜":{"ha":554,"x_min":40,"x_max":472,"o":"m 319 629 q 218 571 218 629 q 285 481 218 544 q 375 399 331 439 q 446 267 446 325 q 381 131 446 183 q 232 79 317 79 q 119 104 171 79 q 40 188 60 133 l 97 289 q 225 193 147 193 q 288 213 260 193 q 315 265 315 232 q 242 365 315 303 q 135 465 160 433 q 82 597 82 528 q 160 713 82 675 q 307 742 219 742 q 471 711 399 742 l 472 597 q 319 629 396 629 z "},"¯":{"ha":872,"x_min":0,"x_max":903,"o":"m 903 628 l 781 628 l 782 76 l 650 76 l 650 356 q 346 394 476 361 q 224 331 303 376 q 169 236 169 290 q 272 132 169 158 q 249 207 249 179 q 297 299 249 267 q 401 325 339 325 q 515 294 469 325 q 568 194 568 260 q 468 64 568 114 q 550 -57 540 -11 l 467 -114 q 353 35 443 -60 q 311 32 329 32 q 132 78 206 32 q 43 231 43 132 q 194 453 43 364 q 113 578 113 508 q 185 696 113 654 q 326 731 243 731 q 464 693 411 731 q 524 574 524 650 q 464 460 524 513 q 650 436 556 443 l 650 628 l 521 628 l 529 621 l 529 729 l 903 729 l 903 628 m 103 628 l 0 628 l 0 729 l 103 729 l 103 628 m 332 622 q 275 613 303 622 q 238 575 238 600 q 306 504 238 536 q 369 535 328 514 q 397 572 397 553 q 332 622 397 622 m 406 236 q 377 226 390 236 q 364 200 364 215 q 393 143 364 179 q 443 190 443 161 q 406 236 443 236 z "},"ˉ":{"ha":872,"x_min":0,"x_max":903,"o":"m 903 628 l 781 628 l 782 76 l 650 76 l 650 356 q 346 394 476 361 q 224 331 303 376 q 169 236 169 290 q 272 132 169 158 q 249 207 249 179 q 297 299 249 267 q 401 325 339 325 q 515 294 469 325 q 568 194 568 260 q 468 64 568 114 q 550 -57 540 -11 l 467 -114 q 353 35 443 -60 q 311 32 329 32 q 132 78 206 32 q 43 231 43 132 q 194 453 43 364 q 113 578 113 508 q 185 696 113 654 q 326 731 243 731 q 464 693 411 731 q 524 574 524 650 q 464 460 524 513 q 650 436 556 443 l 650 628 l 521 628 l 529 621 l 529 729 l 903 729 l 903 628 m 103 628 l 0 628 l 0 729 l 103 729 l 103 628 m 332 622 q 275 613 303 622 q 238 575 238 600 q 306 504 238 536 q 369 535 328 514 q 397 572 397 553 q 332 622 397 622 m 406 236 q 377 226 390 236 q 364 200 364 215 q 393 143 364 179 q 443 190 443 161 q 406 236 443 236 z "},"¸":{"ha":715,"x_min":0,"x_max":747,"o":"m 747 628 l 625 628 l 624 75 l 492 75 l 492 154 q 246 69 357 69 q 174 88 203 69 q 140 150 140 110 q 179 218 140 172 l 94 193 l 74 257 l 385 339 l 406 269 q 328 243 382 263 q 261 185 261 215 q 303 156 261 156 q 401 185 343 156 q 492 249 454 213 l 493 478 q 411 458 443 460 q 310 350 401 388 q 156 321 238 321 q 51 349 88 321 l 74 413 q 164 396 114 396 q 235 408 203 396 q 279 456 279 424 q 231 501 279 501 q 126 463 178 501 l 93 522 q 264 581 160 581 q 396 519 365 581 q 493 544 443 525 l 493 628 l 0 628 l 0 729 l 747 729 l 747 628 z "},"Š":{"ha":810,"x_min":0,"x_max":876,"o":"m 850 392 q 761 426 814 426 q 689 410 729 426 l 690 75 l 557 75 l 557 393 l 411 393 l 411 288 q 358 164 411 211 q 229 117 306 117 q 94 169 146 117 q 42 306 42 222 q 85 442 42 388 q 211 501 132 501 l 278 501 l 278 628 l 0 628 l 0 729 l 272 729 q 301 732 288 732 q 382 692 350 732 q 410 603 410 654 l 410 501 l 557 501 l 557 628 l 513 628 l 513 729 l 853 729 l 853 628 l 689 628 l 689 529 q 775 536 726 536 q 876 514 832 536 l 850 392 m 278 394 l 231 394 q 171 303 171 394 q 185 253 171 274 q 229 228 201 228 q 278 294 278 228 l 278 394 z "},"š":{"ha":935,"x_min":0,"x_max":965,"o":"m 965 628 l 844 628 l 844 150 l 714 150 l 714 628 l 644 628 l 643 150 l 513 150 l 514 628 l 392 628 q 440 494 440 564 q 385 346 440 407 q 232 286 325 279 q 358 154 299 190 q 531 114 425 114 l 851 114 l 849 0 l 504 1 q 82 300 207 1 q 39 450 49 379 l 161 507 q 193 404 171 457 q 219 401 208 401 q 308 490 308 401 q 239 628 308 578 l 0 628 l 0 729 l 965 729 l 965 628 z "},"Ð":{"ha":938,"x_min":0,"x_max":968,"o":"m 968 628 l 522 628 q 543 547 543 586 q 482 429 543 479 q 501 411 493 419 q 581 464 519 418 q 682 497 626 497 q 804 433 757 497 q 849 299 849 375 q 797 160 849 215 q 658 89 746 106 q 631 188 646 139 q 728 301 728 228 q 712 353 728 329 q 669 378 696 378 q 606 351 639 378 q 553 303 579 326 q 554 271 554 285 q 481 119 554 172 q 313 72 415 72 q 150 111 224 72 q 35 231 69 154 l 103 331 q 184 233 124 275 q 294 192 244 192 q 379 218 342 192 q 422 293 422 247 q 378 378 422 342 l 372 383 q 308 378 338 378 q 214 390 261 378 l 210 497 q 300 483 257 483 q 413 550 413 483 q 360 628 413 590 l 0 628 l 0 729 l 968 729 l 968 628 z "},"ð":{"ha":103,"x_min":0,"x_max":0,"o":""},"Ý":{"ha":383,"x_min":0,"x_max":0,"o":""},"ý":{"ha":692,"x_min":0,"x_max":722,"o":"m 722 628 l 546 628 l 546 457 l 307 456 q 171 346 171 454 q 267 204 171 244 q 264 244 264 231 q 316 363 264 317 q 442 408 368 408 q 556 368 510 408 q 603 260 603 328 q 447 94 603 146 q 590 -37 501 17 l 494 -112 q 454 -75 482 -100 l 386 -118 q 406 -153 393 -131 q 414 -183 414 -169 q 378 -250 414 -222 q 301 -278 342 -278 q 228 -249 263 -278 q 194 -183 194 -221 q 224 -133 194 -154 q 247 -117 229 -129 l 199 -44 l 74 -117 l 43 -50 q 138 7 90 -22 q 235 44 203 44 q 319 -19 279 44 q 343 -58 326 -31 l 397 -22 q 315 78 344 32 q 119 146 193 82 q 39 333 39 215 q 99 497 39 438 q 264 557 160 557 l 417 557 l 417 628 l 0 628 l 0 729 l 722 729 l 722 628 m 440 314 q 410 297 422 314 q 397 260 397 279 q 403 204 397 236 q 471 263 471 226 q 440 314 471 314 z "},"Þ":{"ha":0,"x_min":-454,"x_max":-290,"o":"m -372 -171 q -430 -148 -406 -171 q -454 -93 -454 -125 q -430 -37 -454 -60 q -372 -14 -406 -14 q -315 -37 -339 -14 q -290 -93 -290 -60 q -315 -148 -290 -125 q -372 -171 -339 -171 z "},"þ":{"ha":665,"x_min":0,"x_max":697,"o":"m 697 628 l 515 628 l 515 471 l 290 471 q 181 428 181 471 q 226 372 181 401 q 374 404 303 404 q 518 357 461 404 q 579 219 579 306 q 542 114 579 164 q 450 49 506 64 l 376 142 q 458 233 458 169 q 454 265 458 242 q 267 117 386 174 l 218 178 q 383 299 313 221 q 244 249 307 290 q 176 146 176 203 q 233 24 176 68 q 365 -15 285 -15 q 574 63 479 -15 l 574 -78 q 344 -133 458 -133 q 132 -64 214 -133 q 44 139 44 11 q 125 308 44 231 q 46 447 46 364 q 235 565 46 565 l 381 565 l 381 628 l 0 628 l 0 729 l 697 729 l 697 628 z "},"³":{"ha":894,"x_min":0,"x_max":922,"o":"m 922 628 l 806 628 l 804 76 l 672 76 l 672 183 l 567 183 q 478 85 543 125 q 563 -61 511 35 l 465 -112 q 381 47 440 -39 q 279 35 329 35 q 132 60 194 35 q 43 165 43 93 q 85 244 43 213 q 172 272 122 272 q 413 168 308 272 q 442 235 442 199 q 418 290 442 269 q 360 311 394 311 l 221 311 q 117 344 160 311 q 68 442 68 382 q 282 569 68 569 q 332 568 301 569 q 382 567 368 567 l 382 628 l 0 628 l 0 729 l 922 729 l 922 628 m 508 628 l 508 478 l 268 478 q 203 442 203 478 q 269 404 203 404 l 418 404 q 523 368 479 404 q 576 271 567 332 l 672 271 l 672 628 l 508 628 m 213 186 q 175 160 175 186 q 242 122 175 125 q 264 122 250 122 q 317 126 282 122 q 213 186 254 186 z "},"½":{"ha":542,"x_min":0,"x_max":608,"o":"m 582 628 l 465 628 l 465 729 l 582 729 l 582 628 m 579 283 q 500 278 533 278 q 342 300 422 278 q 146 235 243 235 q 40 257 92 235 l 40 367 q 140 346 92 346 q 208 354 167 346 q 88 551 88 438 q 143 678 88 629 q 278 728 199 728 q 422 667 367 728 q 476 518 476 607 q 431 385 476 454 q 607 374 535 368 q 608 371 608 372 q 599 342 608 367 q 579 293 592 326 l 578 292 q 579 283 575 286 m 92 628 l 0 628 l 0 729 l 92 729 l 92 628 m 283 635 q 228 605 247 635 q 208 536 208 575 q 315 418 208 464 q 363 536 363 471 q 342 605 363 575 q 283 635 322 635 z "},"¼":{"ha":542,"x_min":0,"x_max":608,"o":"m 582 628 l 465 628 l 465 729 l 582 729 l 582 628 m 92 628 l 0 628 l 0 729 l 92 729 l 92 628 m 607 369 l 607 250 q 372 97 496 156 q 106 32 229 29 l 88 33 l 46 139 q 107 133 81 133 q 492 292 249 133 q 350 306 413 293 q 146 236 249 236 q 40 257 92 236 l 40 367 q 140 346 92 346 q 211 356 168 346 q 88 551 88 435 q 143 678 88 629 q 278 728 199 728 q 422 667 367 728 q 476 518 476 607 q 431 385 476 454 q 607 374 532 368 l 608 372 q 607 369 608 371 m 283 635 q 228 605 247 635 q 208 536 208 575 q 315 418 208 464 q 363 536 363 471 q 342 605 363 575 q 283 635 322 635 z "},"¾":{"ha":690,"x_min":-21,"x_max":717,"o":"m 717 628 l 619 628 l 619 81 l 493 81 l 493 125 q 374 104 432 104 q 224 140 289 104 q 143 263 143 185 q 333 414 143 382 q 264 446 288 433 q 114 403 186 403 q 43 418 75 403 l 50 499 q 117 485 83 485 q 182 494 140 485 q 114 624 114 554 q 156 708 114 678 q 247 736 192 736 q 345 706 307 736 q 383 619 383 676 q 339 507 383 563 q 492 465 419 475 l 492 628 l 407 628 l 407 729 l 717 729 l 717 628 m 90 628 l -21 628 l -21 729 l 90 729 l 90 628 m 257 654 q 211 619 211 654 q 264 546 211 585 q 293 618 293 581 q 257 654 293 654 m 492 314 q 386 331 436 331 q 271 254 271 331 q 375 196 271 196 q 492 219 439 196 l 492 314 z "},"µ":{"ha":950,"x_min":0,"x_max":979,"o":"m 979 628 l 372 628 q 428 522 408 582 q 589 560 508 560 q 778 497 701 560 q 858 319 858 429 q 769 128 858 204 q 811 19 794 51 q 872 -56 835 -31 l 775 -114 q 672 78 724 -75 q 592 67 629 67 q 474 106 519 67 q 428 215 428 144 q 472 312 428 274 q 575 350 515 350 q 726 240 668 350 q 744 313 744 279 q 693 415 744 381 q 579 446 650 446 q 439 414 499 446 q 370 278 429 331 q 228 225 311 225 q 42 375 86 225 l 135 457 q 222 343 144 343 q 288 372 263 343 q 313 442 313 401 q 286 547 313 493 q 215 628 260 601 l 0 628 l 0 729 l 979 729 l 979 628 m 568 253 q 532 215 532 253 q 594 176 532 176 q 635 181 611 176 q 568 253 601 253 z "},"μ":{"ha":950,"x_min":0,"x_max":979,"o":"m 979 628 l 372 628 q 428 522 408 582 q 589 560 508 560 q 778 497 701 560 q 858 319 858 429 q 769 128 858 204 q 811 19 794 51 q 872 -56 835 -31 l 775 -114 q 672 78 724 -75 q 592 67 629 67 q 474 106 519 67 q 428 215 428 144 q 472 312 428 274 q 575 350 515 350 q 726 240 668 350 q 744 313 744 279 q 693 415 744 381 q 579 446 650 446 q 439 414 499 446 q 370 278 429 331 q 228 225 311 225 q 42 375 86 225 l 135 457 q 222 343 144 343 q 288 372 263 343 q 313 442 313 401 q 286 547 313 493 q 215 628 260 601 l 0 628 l 0 729 l 979 729 l 979 628 m 568 253 q 532 215 532 253 q 594 176 532 176 q 635 181 611 176 q 568 253 601 253 z "}}}
